<svg xmlns="http://www.w3.org/2000/svg" xmlns:xlink="http://www.w3.org/1999/xlink" width="1000" zoomAndPan="magnify" viewBox="0 0 750 749.999995" height="1000" preserveAspectRatio="xMidYMid meet" version="1.0"><defs><clipPath id="cdaa08a9cf"><path d="M 148.839844 396.953125 L 710.320312 396.953125 L 710.320312 674.984375 L 148.839844 674.984375 Z M 148.839844 396.953125 " clip-rule="nonzero"/></clipPath></defs><path fill="#ffa500" d="M 536.128906 546.382812 C 515.9375 523.984375 511.328125 515.132812 523.066406 504.878906 C 534.816406 494.605469 542.964844 504.722656 564.085938 526.273438 C 590.238281 552.960938 592.863281 562.789062 581.113281 573.058594 C 569.363281 583.328125 552.929688 565.015625 536.128906 546.382812 Z M 536.128906 546.382812 " fill-opacity="1" fill-rule="nonzero"/><path fill="#ffa500" d="M 354.960938 604.144531 C 356.53125 574.019531 359.523438 564.511719 375.074219 565.550781 C 390.636719 566.605469 389.25 579.515625 388.945312 609.683594 C 388.5625 647.039062 383.464844 655.84375 367.902344 654.808594 C 352.335938 653.753906 353.648438 629.1875 354.945312 604.144531 Z M 354.960938 604.144531 " fill-opacity="1" fill-rule="nonzero"/><path fill="#ffa500" d="M 186.015625 516.886719 C 208.417969 496.699219 217.269531 492.089844 227.523438 503.824219 C 237.792969 515.574219 227.675781 523.722656 206.128906 544.84375 C 179.4375 571 169.609375 573.625 159.339844 561.875 C 149.070312 550.125 167.382812 533.6875 186.015625 516.886719 Z M 186.015625 516.886719 " fill-opacity="1" fill-rule="nonzero"/><path fill="#ffa500" d="M 128.257812 335.71875 C 158.378906 337.292969 167.886719 340.28125 166.847656 355.832031 C 165.8125 371.382812 152.886719 370.007812 122.71875 369.703125 C 85.359375 369.320312 76.554688 364.226562 77.59375 348.660156 C 78.644531 333.09375 103.214844 334.40625 128.257812 335.703125 Z M 128.257812 335.71875 " fill-opacity="1" fill-rule="nonzero"/><path fill="#ffa500" d="M 215.511719 166.773438 C 235.703125 189.175781 240.3125 198.027344 228.578125 208.28125 C 216.839844 218.539062 208.675781 208.433594 187.558594 186.886719 C 161.402344 160.199219 158.777344 150.371094 170.527344 140.101562 C 182.277344 129.832031 198.710938 148.140625 215.511719 166.773438 Z M 215.511719 166.773438 " fill-opacity="1" fill-rule="nonzero"/><path fill="#ffa500" d="M 396.679688 109.015625 C 395.109375 139.140625 392.117188 148.644531 376.570312 147.609375 C 361.003906 146.554688 362.390625 133.644531 362.695312 103.476562 C 363.078125 66.121094 368.175781 57.316406 383.742188 58.351562 C 399.304688 59.40625 397.992188 83.972656 396.695312 109.015625 Z M 396.679688 109.015625 " fill-opacity="1" fill-rule="nonzero"/><path fill="#ffa500" d="M 565.625 196.273438 C 543.222656 216.460938 534.371094 221.070312 524.117188 209.335938 C 513.847656 197.585938 523.964844 189.4375 545.511719 168.316406 C 572.203125 142.160156 582.03125 139.535156 592.300781 151.285156 C 602.570312 163.035156 584.257812 179.472656 565.625 196.273438 Z M 565.625 196.273438 " fill-opacity="1" fill-rule="nonzero"/><path fill="#ffa500" d="M 623.386719 377.441406 C 593.261719 375.867188 583.753906 372.878906 584.792969 357.328125 C 585.828125 341.777344 598.753906 343.152344 628.925781 343.457031 C 666.28125 343.835938 675.085938 348.933594 674.046875 364.5 C 672.996094 380.066406 648.425781 378.753906 623.386719 377.457031 Z M 623.386719 377.441406 " fill-opacity="1" fill-rule="nonzero"/><path fill="#ffb900" d="M 578.382812 464.652344 C 561.628906 457.265625 561.65625 445.089844 565.59375 436.480469 C 569.53125 427.875 576.046875 419.726562 592.988281 426.683594 C 609.804688 433.582031 612.65625 448.355469 608.703125 456.945312 C 604.753906 465.550781 592.300781 470.785156 578.367188 464.636719 Z M 578.382812 464.652344 " fill-opacity="1" fill-rule="nonzero"/><path fill="#ffb900" d="M 442.644531 576.234375 C 436.023438 559.171875 444.644531 550.566406 453.523438 547.285156 C 462.40625 543.988281 472.769531 542.828125 479.832031 559.738281 C 486.851562 576.507812 478.429688 588.960938 469.546875 592.257812 C 460.667969 595.550781 448.167969 590.441406 442.644531 576.25 Z M 442.644531 576.234375 " fill-opacity="1" fill-rule="nonzero"/><path fill="#ffb900" d="M 267.75 559.140625 C 275.132812 542.386719 287.3125 542.417969 295.917969 546.355469 C 304.527344 550.304688 312.675781 556.808594 305.714844 573.746094 C 298.816406 590.5625 284.046875 593.417969 275.457031 589.464844 C 266.847656 585.511719 261.613281 573.058594 267.765625 559.125 Z M 267.75 559.140625 " fill-opacity="1" fill-rule="nonzero"/><path fill="#ffb900" d="M 156.167969 423.402344 C 173.226562 416.78125 181.835938 425.402344 185.117188 434.285156 C 188.410156 443.164062 189.570312 453.527344 172.664062 460.59375 C 155.890625 467.613281 143.441406 459.1875 140.144531 450.308594 C 136.847656 441.425781 141.960938 428.929688 156.152344 423.402344 Z M 156.167969 423.402344 " fill-opacity="1" fill-rule="nonzero"/><path fill="#ffb900" d="M 173.257812 248.507812 C 190.015625 255.894531 189.984375 268.070312 186.046875 276.679688 C 182.109375 285.285156 175.59375 293.433594 158.65625 286.476562 C 141.839844 279.578125 138.984375 264.804688 142.9375 256.214844 C 146.890625 247.609375 159.339844 242.375 173.273438 248.523438 Z M 173.257812 248.507812 " fill-opacity="1" fill-rule="nonzero"/><path fill="#ffb900" d="M 308.996094 136.925781 C 315.621094 153.988281 306.996094 162.59375 298.117188 165.875 C 289.234375 169.171875 278.875 170.332031 271.808594 153.421875 C 264.789062 136.652344 273.210938 124.199219 282.09375 120.902344 C 290.976562 117.605469 303.472656 122.71875 308.996094 136.910156 Z M 308.996094 136.925781 " fill-opacity="1" fill-rule="nonzero"/><path fill="#ffb900" d="M 483.890625 154.019531 C 476.507812 170.773438 464.328125 170.742188 455.722656 166.804688 C 447.117188 162.867188 438.96875 156.351562 445.925781 139.414062 C 452.824219 122.597656 467.59375 119.742188 476.1875 123.695312 C 484.792969 127.648438 490.027344 140.101562 483.878906 154.03125 Z M 483.890625 154.019531 " fill-opacity="1" fill-rule="nonzero"/><path fill="#ffb900" d="M 595.472656 289.757812 C 578.414062 296.378906 569.808594 287.757812 566.527344 278.875 C 563.230469 269.996094 562.070312 259.632812 578.976562 252.566406 C 595.886719 245.5 608.199219 253.972656 611.496094 262.851562 C 614.792969 271.734375 609.679688 284.230469 595.488281 289.757812 Z M 595.472656 289.757812 " fill-opacity="1" fill-rule="nonzero"/><path fill="#ffd500" d="M 539.699219 357.753906 C 539.699219 360.425781 539.632812 363.097656 539.5 365.765625 C 539.371094 368.433594 539.175781 371.097656 538.914062 373.757812 C 538.652344 376.414062 538.324219 379.066406 537.929688 381.707031 C 537.539062 384.351562 537.082031 386.984375 536.5625 389.605469 C 536.039062 392.222656 535.457031 394.832031 534.804688 397.421875 C 534.15625 400.011719 533.445312 402.585938 532.667969 405.144531 C 531.894531 407.699219 531.054688 410.238281 530.15625 412.753906 C 529.253906 415.269531 528.292969 417.761719 527.273438 420.230469 C 526.25 422.695312 525.167969 425.140625 524.023438 427.554688 C 522.882812 429.96875 521.679688 432.355469 520.421875 434.710938 C 519.164062 437.066406 517.847656 439.390625 516.472656 441.683594 C 515.097656 443.976562 513.667969 446.230469 512.183594 448.453125 C 510.703125 450.675781 509.164062 452.859375 507.570312 455.003906 C 505.980469 457.148438 504.335938 459.253906 502.640625 461.320312 C 500.945312 463.386719 499.203125 465.410156 497.410156 467.386719 C 495.613281 469.367188 493.773438 471.300781 491.882812 473.191406 C 489.992188 475.082031 488.058594 476.921875 486.078125 478.714844 C 484.101562 480.511719 482.078125 482.253906 480.011719 483.949219 C 477.945312 485.644531 475.839844 487.289062 473.695312 488.878906 C 471.550781 490.472656 469.367188 492.007812 467.144531 493.492188 C 464.921875 494.976562 462.667969 496.40625 460.375 497.78125 C 458.082031 499.15625 455.757812 500.472656 453.402344 501.730469 C 451.046875 502.988281 448.660156 504.191406 446.246094 505.332031 C 443.832031 506.476562 441.386719 507.558594 438.921875 508.582031 C 436.453125 509.601562 433.960938 510.5625 431.445312 511.464844 C 428.929688 512.363281 426.394531 513.203125 423.835938 513.976562 C 421.277344 514.753906 418.703125 515.464844 416.113281 516.113281 C 413.523438 516.765625 410.914062 517.347656 408.296875 517.871094 C 405.675781 518.390625 403.042969 518.847656 400.398438 519.238281 C 397.757812 519.632812 395.105469 519.960938 392.449219 520.222656 C 389.789062 520.484375 387.125 520.679688 384.457031 520.808594 C 381.789062 520.941406 379.117188 521.007812 376.445312 521.007812 C 373.773438 521.007812 371.105469 520.941406 368.4375 520.808594 C 365.765625 520.679688 363.105469 520.484375 360.445312 520.222656 C 357.785156 519.960938 355.136719 519.632812 352.492188 519.238281 C 349.847656 518.847656 347.21875 518.390625 344.597656 517.871094 C 341.976562 517.347656 339.371094 516.765625 336.777344 516.113281 C 334.1875 515.464844 331.613281 514.753906 329.058594 513.976562 C 326.5 513.203125 323.964844 512.363281 321.449219 511.464844 C 318.933594 510.5625 316.441406 509.601562 313.972656 508.582031 C 311.503906 507.558594 309.0625 506.476562 306.648438 505.332031 C 304.230469 504.191406 301.847656 502.988281 299.488281 501.730469 C 297.132812 500.472656 294.808594 499.15625 292.519531 497.78125 C 290.226562 496.40625 287.96875 494.976562 285.75 493.496094 C 283.527344 492.011719 281.34375 490.472656 279.195312 488.878906 C 277.050781 487.289062 274.945312 485.644531 272.878906 483.949219 C 270.816406 482.253906 268.792969 480.511719 266.8125 478.714844 C 264.832031 476.921875 262.898438 475.082031 261.007812 473.191406 C 259.121094 471.300781 257.277344 469.367188 255.484375 467.386719 C 253.691406 465.410156 251.945312 463.386719 250.25 461.320312 C 248.554688 459.253906 246.914062 457.148438 245.320312 455.003906 C 243.730469 452.859375 242.191406 450.675781 240.707031 448.453125 C 239.222656 446.230469 237.792969 443.976562 236.421875 441.683594 C 235.046875 439.390625 233.730469 437.066406 232.46875 434.710938 C 231.210938 432.355469 230.011719 429.96875 228.867188 427.554688 C 227.726562 425.140625 226.644531 422.695312 225.621094 420.230469 C 224.597656 417.761719 223.636719 415.269531 222.738281 412.753906 C 221.835938 410.238281 221 407.699219 220.222656 405.144531 C 219.449219 402.585938 218.734375 400.011719 218.085938 397.421875 C 217.4375 394.832031 216.851562 392.222656 216.332031 389.605469 C 215.808594 386.984375 215.351562 384.351562 214.960938 381.707031 C 214.570312 379.066406 214.242188 376.414062 213.980469 373.757812 C 213.71875 371.097656 213.523438 368.433594 213.390625 365.765625 C 213.257812 363.097656 213.195312 360.425781 213.195312 357.753906 C 213.195312 355.082031 213.257812 352.414062 213.390625 349.746094 C 213.523438 347.074219 213.71875 344.414062 213.980469 341.753906 C 214.242188 339.09375 214.570312 336.445312 214.960938 333.800781 C 215.351562 331.15625 215.808594 328.527344 216.332031 325.90625 C 216.851562 323.285156 217.4375 320.679688 218.085938 318.085938 C 218.734375 315.496094 219.449219 312.921875 220.222656 310.363281 C 221 307.808594 221.835938 305.273438 222.738281 302.757812 C 223.636719 300.242188 224.597656 297.75 225.621094 295.28125 C 226.644531 292.8125 227.726562 290.371094 228.867188 287.957031 C 230.011719 285.539062 231.210938 283.15625 232.46875 280.796875 C 233.730469 278.441406 235.046875 276.117188 236.421875 273.828125 C 237.792969 271.535156 239.222656 269.277344 240.707031 267.058594 C 242.191406 264.835938 243.730469 262.652344 245.320312 260.503906 C 246.914062 258.359375 248.554688 256.253906 250.25 254.1875 C 251.945312 252.125 253.691406 250.101562 255.484375 248.121094 C 257.277344 246.140625 259.121094 244.207031 261.007812 242.316406 C 262.898438 240.429688 264.832031 238.585938 266.8125 236.792969 C 268.792969 235 270.816406 233.253906 272.878906 231.558594 C 274.945312 229.863281 277.050781 228.222656 279.195312 226.628906 C 281.34375 225.039062 283.527344 223.5 285.75 222.015625 C 287.96875 220.53125 290.226562 219.101562 292.519531 217.730469 C 294.808594 216.355469 297.132812 215.039062 299.488281 213.777344 C 301.847656 212.519531 304.230469 211.320312 306.648438 210.175781 C 309.0625 209.035156 311.503906 207.953125 313.972656 206.929688 C 316.441406 205.90625 318.933594 204.945312 321.449219 204.046875 C 323.964844 203.144531 326.5 202.308594 329.058594 201.53125 C 331.613281 200.757812 334.1875 200.042969 336.777344 199.394531 C 339.371094 198.746094 341.976562 198.160156 344.597656 197.640625 C 347.21875 197.117188 349.847656 196.660156 352.492188 196.269531 C 355.136719 195.878906 357.785156 195.550781 360.445312 195.289062 C 363.105469 195.027344 365.765625 194.832031 368.4375 194.699219 C 371.105469 194.566406 373.773438 194.503906 376.445312 194.503906 C 379.117188 194.503906 381.789062 194.566406 384.457031 194.699219 C 387.125 194.832031 389.789062 195.027344 392.449219 195.289062 C 395.105469 195.550781 397.757812 195.878906 400.398438 196.269531 C 403.042969 196.660156 405.675781 197.117188 408.296875 197.640625 C 410.914062 198.160156 413.523438 198.746094 416.113281 199.394531 C 418.703125 200.042969 421.277344 200.757812 423.835938 201.53125 C 426.394531 202.308594 428.929688 203.144531 431.445312 204.046875 C 433.960938 204.945312 436.453125 205.90625 438.921875 206.929688 C 441.386719 207.953125 443.832031 209.035156 446.246094 210.175781 C 448.660156 211.320312 451.046875 212.519531 453.402344 213.777344 C 455.757812 215.039062 458.082031 216.355469 460.375 217.730469 C 462.667969 219.101562 464.921875 220.53125 467.144531 222.015625 C 469.367188 223.5 471.550781 225.039062 473.695312 226.628906 C 475.839844 228.222656 477.945312 229.863281 480.011719 231.558594 C 482.078125 233.253906 484.101562 235 486.078125 236.792969 C 488.058594 238.585938 489.992188 240.429688 491.882812 242.316406 C 493.773438 244.207031 495.613281 246.140625 497.410156 248.121094 C 499.203125 250.101562 500.945312 252.125 502.640625 254.1875 C 504.335938 256.253906 505.980469 258.359375 507.570312 260.503906 C 509.164062 262.652344 510.703125 264.835938 512.183594 267.058594 C 513.667969 269.277344 515.097656 271.535156 516.472656 273.828125 C 517.847656 276.117188 519.164062 278.441406 520.421875 280.796875 C 521.679688 283.15625 522.882812 285.539062 524.023438 287.957031 C 525.167969 290.371094 526.25 292.8125 527.273438 295.28125 C 528.292969 297.75 529.253906 300.242188 530.15625 302.757812 C 531.054688 305.273438 531.894531 307.808594 532.667969 310.363281 C 533.445312 312.921875 534.15625 315.496094 534.804688 318.085938 C 535.457031 320.679688 536.039062 323.285156 536.5625 325.90625 C 537.082031 328.527344 537.539062 331.15625 537.929688 333.800781 C 538.324219 336.445312 538.652344 339.09375 538.914062 341.753906 C 539.175781 344.414062 539.371094 347.074219 539.5 349.746094 C 539.632812 352.414062 539.699219 355.082031 539.699219 357.753906 Z M 539.699219 357.753906 " fill-opacity="1" fill-rule="nonzero"/><path fill="#575260" d="M 307.882812 360.488281 C 315.636719 352.71875 328.742188 350.003906 340.171875 352.949219 C 348.949219 355.207031 356.714844 360.851562 365.976562 361.234375 C 376.125 361.660156 383.421875 355.359375 392.804688 352.949219 C 404.464844 349.957031 416.761719 350.949219 425.277344 360.320312 C 436.265625 372.417969 431.488281 390.714844 419.96875 400.558594 C 401.59375 416.261719 372.449219 420.472656 349.375 416.1875 C 334.679688 413.453125 316.382812 406.34375 307.378906 393.738281 C 300.328125 383.878906 298.695312 369.71875 307.898438 360.5 Z M 307.882812 360.488281 " fill-opacity="1" fill-rule="nonzero"/><path fill="#ffffff" d="M 340.171875 352.949219 C 348.949219 355.207031 356.714844 360.851562 365.976562 361.234375 C 376.125 361.660156 383.421875 355.359375 392.804688 352.949219 C 401.898438 350.613281 411.363281 350.71875 419.128906 355.3125 C 417.601562 360.152344 415.039062 365.15625 410.765625 367.996094 C 396.804688 377.316406 372.90625 376.90625 353.984375 375.960938 C 341.621094 375.335938 322.761719 370.511719 317.542969 362.347656 C 316.230469 360.289062 314.980469 358.167969 314.15625 355.863281 C 321.707031 351.757812 331.429688 350.691406 340.171875 352.933594 Z M 340.171875 352.949219 " fill-opacity="1" fill-rule="nonzero"/><path fill="#f05c6a" d="M 412.09375 406.191406 C 393.933594 417.207031 369.382812 419.894531 349.359375 416.171875 C 339.472656 414.339844 327.980469 410.507812 318.761719 404.375 C 323.144531 397.796875 329.046875 394.46875 336.585938 392.808594 C 347.621094 390.382812 356.867188 396.101562 361.796875 398.238281 C 367.503906 393.800781 385.480469 392.640625 393.277344 393.753906 C 401.839844 394.972656 408.292969 399.644531 412.09375 406.191406 Z M 412.09375 406.191406 " fill-opacity="1" fill-rule="nonzero"/><path fill="#ffe564" d="M 353.667969 213.144531 C 353.910156 213.675781 354.101562 214.230469 354.246094 214.800781 C 354.386719 215.375 354.480469 215.96875 354.523438 216.578125 C 354.566406 217.1875 354.5625 217.8125 354.503906 218.449219 C 354.449219 219.089844 354.339844 219.742188 354.183594 220.402344 C 354.027344 221.066406 353.824219 221.738281 353.570312 222.417969 C 353.316406 223.101562 353.015625 223.785156 352.664062 224.476562 C 352.316406 225.167969 351.921875 225.863281 351.480469 226.558594 C 351.039062 227.253906 350.554688 227.949219 350.023438 228.640625 C 349.496094 229.332031 348.925781 230.023438 348.3125 230.707031 C 347.699219 231.390625 347.050781 232.066406 346.363281 232.734375 C 345.671875 233.402344 344.949219 234.058594 344.191406 234.707031 C 343.429688 235.351562 342.640625 235.984375 341.820312 236.601562 C 340.996094 237.21875 340.148438 237.820312 339.269531 238.402344 C 338.394531 238.984375 337.492188 239.546875 336.570312 240.089844 C 335.648438 240.632812 334.707031 241.15625 333.746094 241.652344 C 332.785156 242.152344 331.808594 242.625 330.820312 243.070312 C 329.828125 243.519531 328.832031 243.941406 327.824219 244.335938 C 326.8125 244.726562 325.800781 245.09375 324.785156 245.429688 C 323.765625 245.765625 322.75 246.070312 321.734375 246.34375 C 320.714844 246.617188 319.703125 246.859375 318.699219 247.070312 C 317.691406 247.28125 316.695312 247.457031 315.710938 247.601562 C 314.722656 247.746094 313.753906 247.855469 312.796875 247.933594 C 311.839844 248.007812 310.902344 248.050781 309.984375 248.058594 C 309.066406 248.070312 308.171875 248.042969 307.304688 247.984375 C 306.433594 247.925781 305.589844 247.832031 304.777344 247.703125 C 303.964844 247.578125 303.183594 247.414062 302.433594 247.222656 C 301.683594 247.027344 300.96875 246.800781 300.289062 246.542969 C 299.609375 246.285156 298.96875 245.996094 298.367188 245.675781 C 297.765625 245.355469 297.207031 245.007812 296.691406 244.628906 C 296.171875 244.246094 295.699219 243.839844 295.269531 243.40625 C 294.839844 242.972656 294.457031 242.511719 294.121094 242.027344 C 293.78125 241.539062 293.492188 241.03125 293.253906 240.5 C 293.011719 239.964844 292.820312 239.414062 292.675781 238.839844 C 292.535156 238.265625 292.441406 237.675781 292.398438 237.066406 C 292.355469 236.457031 292.359375 235.832031 292.417969 235.191406 C 292.472656 234.554688 292.582031 233.902344 292.738281 233.238281 C 292.890625 232.574219 293.097656 231.902344 293.351562 231.222656 C 293.605469 230.542969 293.90625 229.855469 294.257812 229.164062 C 294.605469 228.472656 295 227.78125 295.441406 227.085938 C 295.882812 226.390625 296.367188 225.695312 296.898438 225 C 297.425781 224.308594 297.996094 223.621094 298.609375 222.9375 C 299.222656 222.253906 299.871094 221.574219 300.558594 220.90625 C 301.25 220.238281 301.972656 219.582031 302.730469 218.9375 C 303.492188 218.289062 304.28125 217.660156 305.101562 217.042969 C 305.925781 216.425781 306.773438 215.824219 307.652344 215.242188 C 308.527344 214.65625 309.425781 214.09375 310.351562 213.550781 C 311.273438 213.007812 312.214844 212.488281 313.175781 211.988281 C 314.136719 211.492188 315.113281 211.019531 316.101562 210.570312 C 317.09375 210.121094 318.089844 209.703125 319.097656 209.308594 C 320.105469 208.914062 321.121094 208.550781 322.136719 208.214844 C 323.15625 207.878906 324.171875 207.574219 325.1875 207.300781 C 326.207031 207.027344 327.214844 206.785156 328.222656 206.574219 C 329.230469 206.363281 330.226562 206.1875 331.210938 206.042969 C 332.199219 205.898438 333.167969 205.785156 334.125 205.710938 C 335.082031 205.632812 336.019531 205.589844 336.9375 205.582031 C 337.855469 205.574219 338.75 205.597656 339.617188 205.660156 C 340.488281 205.71875 341.332031 205.8125 342.144531 205.9375 C 342.957031 206.066406 343.738281 206.226562 344.488281 206.421875 C 345.238281 206.613281 345.953125 206.839844 346.632812 207.097656 C 347.3125 207.355469 347.953125 207.644531 348.554688 207.964844 C 349.15625 208.285156 349.714844 208.636719 350.230469 209.015625 C 350.75 209.394531 351.222656 209.800781 351.652344 210.234375 C 352.082031 210.671875 352.464844 211.132812 352.800781 211.617188 C 353.140625 212.101562 353.429688 212.613281 353.667969 213.144531 Z M 353.667969 213.144531 " fill-opacity="1" fill-rule="nonzero"/><path fill="#ffe564" d="M 379.425781 237.351562 C 379.695312 237.957031 379.878906 238.59375 379.964844 239.269531 C 380.050781 239.941406 380.042969 240.636719 379.9375 241.355469 C 379.835938 242.074219 379.640625 242.800781 379.351562 243.539062 C 379.0625 244.273438 378.683594 245.003906 378.222656 245.726562 C 377.757812 246.449219 377.214844 247.15625 376.59375 247.839844 C 375.972656 248.527344 375.285156 249.179688 374.53125 249.796875 C 373.777344 250.417969 372.972656 250.992188 372.113281 251.523438 C 371.253906 252.054688 370.363281 252.527344 369.433594 252.949219 C 368.503906 253.371094 367.554688 253.726562 366.59375 254.023438 C 365.628906 254.316406 364.664062 254.542969 363.699219 254.703125 C 362.738281 254.859375 361.792969 254.945312 360.871094 254.960938 C 359.945312 254.976562 359.058594 254.917969 358.207031 254.789062 C 357.355469 254.660156 356.558594 254.460938 355.816406 254.191406 C 355.074219 253.925781 354.398438 253.59375 353.789062 253.195312 C 353.183594 252.800781 352.652344 252.347656 352.203125 251.835938 C 351.753906 251.328125 351.394531 250.769531 351.121094 250.167969 C 350.847656 249.5625 350.667969 248.925781 350.582031 248.253906 C 350.492188 247.578125 350.503906 246.882812 350.605469 246.164062 C 350.707031 245.445312 350.90625 244.71875 351.195312 243.984375 C 351.484375 243.246094 351.859375 242.519531 352.324219 241.792969 C 352.789062 241.070312 353.328125 240.363281 353.949219 239.679688 C 354.570312 238.996094 355.257812 238.34375 356.011719 237.722656 C 356.765625 237.101562 357.574219 236.527344 358.429688 235.996094 C 359.289062 235.46875 360.183594 234.992188 361.113281 234.570312 C 362.039062 234.152344 362.988281 233.792969 363.953125 233.496094 C 364.917969 233.203125 365.882812 232.976562 366.84375 232.820312 C 367.808594 232.660156 368.75 232.574219 369.675781 232.558594 C 370.597656 232.546875 371.488281 232.601562 372.335938 232.730469 C 373.1875 232.859375 373.984375 233.058594 374.726562 233.328125 C 375.472656 233.59375 376.148438 233.925781 376.753906 234.324219 C 377.363281 234.71875 377.890625 235.171875 378.339844 235.683594 C 378.789062 236.191406 379.152344 236.75 379.425781 237.351562 Z M 379.425781 237.351562 " fill-opacity="1" fill-rule="nonzero"/><path fill="#575260" d="M 522.53125 269.0625 C 521.035156 268.925781 519.539062 268.789062 518.058594 268.652344 C 510.351562 267.964844 502.632812 267.324219 494.910156 266.742188 C 454.808594 263.722656 414.613281 262.136719 374.417969 261.96875 C 369.945312 261.953125 365.472656 261.953125 360.988281 261.96875 C 320.792969 262.121094 280.597656 263.722656 240.496094 266.742188 C 232.773438 267.324219 225.050781 267.964844 217.34375 268.652344 C 215.847656 268.789062 214.355469 268.925781 212.875 269.0625 C 210.402344 269.292969 208.617188 271.839844 208.890625 274.738281 C 209.226562 278.25 209.546875 281.757812 209.882812 285.269531 C 210.15625 288.136719 212.308594 290.398438 214.71875 290.121094 C 217.191406 289.847656 219.433594 292.046875 219.695312 294.976562 C 220.761719 307 221.832031 319.007812 222.914062 331.035156 C 223.984375 342.769531 232.34375 351.726562 241.851562 351.421875 C 262.988281 350.734375 284.121094 350.476562 305.226562 350.628906 C 310.355469 350.660156 315.207031 347.972656 318.582031 343.226562 C 328.390625 329.386719 338.480469 315.652344 348.808594 301.996094 C 353.632812 295.632812 360.5 292 367.71875 292 C 374.9375 292 381.800781 295.632812 386.625 301.996094 C 396.957031 315.636719 407.042969 329.386719 416.855469 343.226562 C 420.226562 347.972656 425.082031 350.675781 430.207031 350.628906 C 451.3125 350.476562 472.433594 350.734375 493.582031 351.421875 C 503.074219 351.726562 511.453125 342.769531 512.519531 331.035156 C 513.589844 319.007812 514.65625 307 515.738281 294.976562 C 516 292.105469 518.152344 289.832031 520.546875 290.105469 C 523.019531 290.382812 525.261719 288.199219 525.539062 285.269531 C 525.871094 281.757812 526.191406 278.25 526.527344 274.738281 C 526.804688 271.839844 525.035156 269.292969 522.546875 269.0625 Z M 522.53125 269.0625 " fill-opacity="1" fill-rule="nonzero"/><path fill="#797580" d="M 494.910156 266.757812 C 494.804688 266.757812 494.695312 266.757812 494.605469 266.742188 C 469.746094 292.914062 446.628906 320.671875 425.414062 349.835938 C 426.957031 350.355469 428.558594 350.660156 430.191406 350.644531 C 434.222656 350.613281 438.265625 350.613281 442.292969 350.613281 C 463.886719 321.632812 487.402344 294.105469 512.703125 268.222656 C 506.78125 267.71875 500.847656 267.203125 494.925781 266.757812 Z M 494.910156 266.757812 " fill-opacity="1" fill-rule="nonzero"/><path fill="#797580" d="M 270.390625 264.773438 C 253.511719 284.109375 237.488281 304.191406 222.378906 324.945312 L 222.929688 331.035156 C 223.859375 341.242188 230.316406 349.347656 238.234375 351.085938 C 260.105469 320.140625 284.015625 290.703125 309.851562 262.972656 C 296.695312 263.417969 283.542969 264.011719 270.390625 264.773438 Z M 270.390625 264.773438 " fill-opacity="1" fill-rule="nonzero"/><path fill="#797580" d="M 476.523438 265.492188 C 464.496094 264.714844 452.472656 264.074219 440.445312 263.554688 C 425.445312 280.660156 411.132812 298.363281 397.519531 316.597656 C 403.378906 324.519531 409.164062 332.46875 414.855469 340.449219 C 433.945312 314.292969 454.546875 289.269531 476.523438 265.492188 Z M 476.523438 265.492188 " fill-opacity="1" fill-rule="nonzero"/><path fill="#797580" d="M 349.757812 262.089844 C 343.085938 262.164062 336.433594 262.257812 329.765625 262.410156 C 302.96875 290.199219 278.171875 319.832031 255.527344 351.070312 C 261.414062 350.933594 267.320312 350.8125 273.210938 350.734375 C 296.542969 319.40625 322.121094 289.769531 349.757812 262.089844 Z M 349.757812 262.089844 " fill-opacity="1" fill-rule="nonzero"/><g clip-path="url(#cdaa08a9cf)"><path fill="#38b6ff" d="M 408.855469 454.433594 C 408.855469 454.433594 426.753906 391.21875 498.917969 397.375 C 571.082031 403.527344 568.28125 480.722656 568.28125 480.722656 C 568.28125 480.722656 605.757812 470.65625 631.496094 496.945312 C 657.222656 523.238281 639.324219 568.546875 639.324219 568.546875 C 639.324219 568.546875 695.824219 543.933594 708.6875 596.515625 C 721.558594 649.101562 657.222656 670.917969 549.824219 651.898438 C 549.824219 651.898438 448.011719 701.125 341.167969 655.8125 C 341.167969 655.8125 156.570312 699.445312 149.296875 622.808594 C 142.023438 546.171875 223.695312 559.039062 223.695312 559.039062 C 223.695312 559.039062 225.933594 526.59375 263.972656 510.371094 C 302.011719 494.148438 319.910156 510.929688 319.910156 510.929688 C 319.910156 510.929688 322.148438 470.09375 352.917969 455.550781 C 383.683594 441.007812 408.855469 454.433594 408.855469 454.433594 " fill-opacity="1" fill-rule="nonzero"/></g><path fill="#ffffff" d="M 425.367188 535.96875 C 425.367188 541.875 420.578125 546.667969 414.667969 546.667969 C 408.757812 546.667969 403.96875 541.875 403.96875 535.96875 C 403.96875 530.058594 408.757812 525.269531 414.667969 525.269531 C 420.578125 525.269531 425.367188 530.058594 425.367188 535.96875 " fill-opacity="1" fill-rule="nonzero"/><path fill="#ffffff" d="M 530.441406 535.96875 C 530.441406 541.875 525.652344 546.667969 519.742188 546.667969 C 513.832031 546.667969 509.042969 541.875 509.042969 535.96875 C 509.042969 530.058594 513.832031 525.269531 519.742188 525.269531 C 525.652344 525.269531 530.441406 530.058594 530.441406 535.96875 " fill-opacity="1" fill-rule="nonzero"/><path fill="#ffffff" d="M 473.433594 589.117188 C 466.277344 589.117188 460.808594 586.835938 457.183594 582.328125 C 449.855469 573.214844 452.996094 558.421875 453.132812 557.792969 C 453.382812 556.660156 454.496094 555.941406 455.640625 556.191406 C 456.773438 556.4375 457.492188 557.558594 457.246094 558.695312 C 457.214844 558.828125 454.40625 572.167969 460.476562 579.699219 C 463.261719 583.15625 467.621094 584.910156 473.433594 584.910156 C 479.179688 584.910156 483.410156 583.195312 486.003906 579.820312 C 491.753906 572.335938 488.273438 558.921875 488.238281 558.789062 C 487.941406 557.667969 488.605469 556.511719 489.730469 556.210938 C 490.847656 555.910156 492.003906 556.578125 492.304688 557.699219 C 492.472656 558.332031 496.363281 573.234375 489.351562 582.371094 C 485.917969 586.847656 480.5625 589.117188 473.433594 589.117188 " fill-opacity="1" fill-rule="nonzero"/><path fill="#ffffff" d="M 411.921875 574.382812 C 411.921875 580.066406 403.855469 584.675781 393.910156 584.675781 C 383.964844 584.675781 375.902344 580.066406 375.902344 574.382812 C 375.902344 568.699219 383.964844 564.09375 393.910156 564.09375 C 403.855469 564.09375 411.921875 568.699219 411.921875 574.382812 " fill-opacity="1" fill-rule="nonzero"/><path fill="#ffffff" d="M 566.460938 574.382812 C 566.460938 580.066406 558.398438 584.675781 548.449219 584.675781 C 538.507812 584.675781 530.441406 580.066406 530.441406 574.382812 C 530.441406 568.699219 538.507812 564.09375 548.449219 564.09375 C 558.398438 564.09375 566.460938 568.699219 566.460938 574.382812 " fill-opacity="1" fill-rule="nonzero"/><path fill="#ffffff" d="M 245.375 564.09375 C 245.375 564.09375 244.792969 540.492188 269.359375 527.820312 C 296.492188 513.828125 317.074219 527.859375 317.074219 527.859375 C 317.074219 527.859375 280.925781 522.929688 245.375 564.09375 " fill-opacity="1" fill-rule="nonzero"/><path fill="#ffffff" d="M 217.4375 578.144531 C 217.4375 578.144531 170.195312 574.636719 168.789062 612.058594 C 167.386719 649.480469 212.761719 649.015625 212.761719 649.015625 C 212.761719 649.015625 176.992188 635.753906 184.226562 608.785156 C 191.460938 581.8125 217.4375 578.144531 217.4375 578.144531 " fill-opacity="1" fill-rule="nonzero"/><path fill="#ffffff" d="M 429.578125 452.546875 C 429.578125 452.546875 443.371094 415.117188 495.761719 417.933594 C 548.152344 420.75 553.765625 464.945312 553.765625 464.945312 C 553.765625 464.945312 501.855469 397.820312 429.578125 452.546875 " fill-opacity="1" fill-rule="nonzero"/><path fill="#eff5f7" d="M 455.921875 519.921875 C 457 512.105469 463.726562 506.109375 471.828125 506.183594 C 479.929688 506.253906 486.550781 512.363281 487.492188 520.199219 L 494.199219 520.257812 C 493.261719 508.734375 483.671875 499.628906 471.886719 499.523438 C 460.105469 499.421875 450.355469 508.359375 449.214844 519.863281 Z M 455.921875 519.921875 " fill-opacity="1" fill-rule="nonzero"/><path fill="#eff5f7" d="M 429.257812 488.488281 C 420.390625 488.410156 412.238281 491.476562 405.828125 496.632812 L 397.070312 496.554688 L 397.070312 496.574219 C 396.972656 496.566406 396.875 496.550781 396.777344 496.550781 C 392.917969 496.515625 389.761719 499.617188 389.726562 503.476562 C 389.699219 506.835938 392.046875 509.664062 395.203125 510.359375 C 393.1875 514.867188 392.039062 519.851562 391.992188 525.105469 C 391.8125 545.507812 408.207031 562.191406 428.609375 562.371094 C 449.011719 562.550781 465.695312 546.15625 465.875 525.753906 C 466.054688 505.351562 449.660156 488.667969 429.257812 488.488281 Z M 429.257812 488.488281 " fill-opacity="1" fill-rule="nonzero"/><path fill="#bbd7df" d="M 450.015625 504.34375 C 450.707031 505.035156 451.363281 505.757812 451.980469 506.511719 C 452.601562 507.269531 453.183594 508.050781 453.726562 508.863281 C 454.269531 509.675781 454.769531 510.511719 455.230469 511.375 C 455.691406 512.234375 456.105469 513.117188 456.480469 514.019531 C 456.855469 514.921875 457.183594 515.839844 457.464844 516.773438 C 457.75 517.707031 457.988281 518.652344 458.175781 519.613281 C 458.367188 520.570312 458.511719 521.535156 458.605469 522.507812 C 458.703125 523.476562 458.75 524.453125 458.75 525.429688 C 458.75 526.40625 458.703125 527.378906 458.605469 528.351562 C 458.511719 529.324219 458.367188 530.289062 458.175781 531.246094 C 457.988281 532.203125 457.75 533.148438 457.464844 534.085938 C 457.183594 535.019531 456.855469 535.9375 456.480469 536.839844 C 456.105469 537.742188 455.691406 538.625 455.230469 539.484375 C 454.769531 540.347656 454.269531 541.183594 453.726562 541.996094 C 453.183594 542.808594 452.601562 543.589844 451.984375 544.34375 C 451.363281 545.101562 450.707031 545.824219 450.019531 546.511719 C 449.328125 547.203125 448.605469 547.859375 447.847656 548.476562 C 447.09375 549.097656 446.3125 549.679688 445.5 550.222656 C 444.6875 550.765625 443.851562 551.265625 442.988281 551.726562 C 442.128906 552.1875 441.246094 552.601562 440.34375 552.976562 C 439.441406 553.351562 438.523438 553.679688 437.589844 553.960938 C 436.65625 554.246094 435.707031 554.484375 434.75 554.675781 C 433.792969 554.863281 432.828125 555.007812 431.855469 555.101562 C 430.882812 555.199219 429.910156 555.246094 428.933594 555.246094 C 427.957031 555.246094 426.984375 555.199219 426.011719 555.101562 C 425.039062 555.007812 424.074219 554.863281 423.117188 554.675781 C 422.160156 554.484375 421.210938 554.246094 420.277344 553.964844 C 419.34375 553.679688 418.425781 553.351562 417.523438 552.976562 C 416.621094 552.605469 415.738281 552.1875 414.878906 551.726562 C 414.015625 551.265625 413.179688 550.765625 412.367188 550.222656 C 411.554688 549.679688 410.773438 549.097656 410.019531 548.480469 C 409.261719 547.859375 408.539062 547.203125 407.847656 546.515625 C 407.160156 545.824219 406.503906 545.101562 405.882812 544.347656 C 405.265625 543.589844 404.683594 542.808594 404.140625 541.996094 C 403.597656 541.183594 403.097656 540.347656 402.636719 539.484375 C 402.175781 538.625 401.757812 537.742188 401.386719 536.839844 C 401.011719 535.9375 400.683594 535.019531 400.398438 534.085938 C 400.117188 533.152344 399.878906 532.203125 399.6875 531.246094 C 399.5 530.289062 399.355469 529.324219 399.257812 528.351562 C 399.164062 527.378906 399.117188 526.40625 399.117188 525.429688 C 399.117188 524.453125 399.164062 523.480469 399.257812 522.507812 C 399.355469 521.535156 399.5 520.570312 399.6875 519.613281 C 399.878906 518.65625 400.117188 517.710938 400.398438 516.773438 C 400.683594 515.839844 401.011719 514.921875 401.386719 514.019531 C 401.757812 513.117188 402.175781 512.234375 402.636719 511.375 C 403.097656 510.511719 403.597656 509.675781 404.140625 508.863281 C 404.683594 508.050781 405.265625 507.269531 405.882812 506.515625 C 406.503906 505.757812 407.15625 505.035156 407.847656 504.347656 C 408.539062 503.65625 409.261719 503 410.015625 502.378906 C 410.773438 501.761719 411.554688 501.179688 412.367188 500.636719 C 413.179688 500.09375 414.015625 499.59375 414.875 499.132812 C 415.738281 498.671875 416.621094 498.253906 417.523438 497.882812 C 418.425781 497.507812 419.34375 497.179688 420.277344 496.894531 C 421.210938 496.613281 422.15625 496.375 423.117188 496.183594 C 424.074219 495.996094 425.039062 495.851562 426.011719 495.753906 C 426.980469 495.660156 427.957031 495.613281 428.933594 495.613281 C 429.910156 495.613281 430.882812 495.660156 431.855469 495.753906 C 432.828125 495.851562 433.792969 495.996094 434.75 496.183594 C 435.707031 496.375 436.652344 496.613281 437.589844 496.894531 C 438.523438 497.179688 439.441406 497.507812 440.34375 497.882812 C 441.246094 498.253906 442.128906 498.671875 442.988281 499.132812 C 443.851562 499.59375 444.6875 500.09375 445.5 500.636719 C 446.308594 501.179688 447.09375 501.761719 447.847656 502.378906 C 448.605469 503 449.328125 503.65625 450.015625 504.34375 Z M 450.015625 504.34375 " fill-opacity="1" fill-rule="nonzero"/><path fill="#ffffff" d="M 419.488281 497.167969 L 410.359375 548.320312 C 412.71875 550.269531 415.382812 551.855469 418.273438 553.011719 L 428.53125 495.519531 C 425.371094 495.601562 422.332031 496.171875 419.488281 497.167969 Z M 419.488281 497.167969 " fill-opacity="1" fill-rule="nonzero"/><path fill="#ffffff" d="M 434.835938 496.019531 L 424.363281 554.71875 C 425.894531 554.976562 427.464844 555.121094 429.066406 555.132812 C 432.066406 555.160156 434.96875 554.738281 437.707031 553.9375 L 447.085938 501.375 C 443.53125 498.730469 439.367188 496.867188 434.835938 496.019531 Z M 434.835938 496.019531 " fill-opacity="1" fill-rule="nonzero"/><path fill="#eff5f7" d="M 515.808594 489.25 C 524.675781 489.328125 532.773438 492.539062 539.09375 497.804688 L 547.847656 497.882812 L 547.847656 497.898438 C 547.945312 497.894531 548.042969 497.882812 548.144531 497.882812 C 552.003906 497.917969 555.101562 501.074219 555.066406 504.933594 C 555.039062 508.292969 552.640625 511.078125 549.472656 511.71875 C 551.410156 516.257812 552.46875 521.261719 552.421875 526.515625 C 552.242188 546.917969 535.558594 563.3125 515.15625 563.132812 C 494.753906 562.953125 478.359375 546.269531 478.539062 525.867188 C 478.71875 505.464844 495.40625 489.070312 515.808594 489.25 Z M 515.808594 489.25 " fill-opacity="1" fill-rule="nonzero"/><path fill="#bbd7df" d="M 536.566406 505.105469 C 537.253906 505.796875 537.910156 506.519531 538.53125 507.273438 C 539.148438 508.03125 539.730469 508.8125 540.273438 509.625 C 540.816406 510.4375 541.316406 511.273438 541.777344 512.136719 C 542.238281 512.996094 542.65625 513.878906 543.027344 514.78125 C 543.402344 515.683594 543.730469 516.601562 544.015625 517.535156 C 544.296875 518.46875 544.535156 519.417969 544.726562 520.375 C 544.914062 521.332031 545.058594 522.296875 545.15625 523.269531 C 545.25 524.242188 545.296875 525.214844 545.296875 526.191406 C 545.296875 527.167969 545.25 528.140625 545.15625 529.113281 C 545.058594 530.085938 544.914062 531.050781 544.726562 532.007812 C 544.535156 532.964844 544.296875 533.914062 544.015625 534.847656 C 543.730469 535.78125 543.402344 536.699219 543.027344 537.601562 C 542.65625 538.503906 542.238281 539.386719 541.777344 540.246094 C 541.316406 541.109375 540.816406 541.945312 540.273438 542.757812 C 539.730469 543.570312 539.148438 544.351562 538.53125 545.105469 C 537.910156 545.863281 537.253906 546.585938 536.566406 547.273438 C 535.875 547.964844 535.152344 548.621094 534.398438 549.242188 C 533.640625 549.859375 532.859375 550.441406 532.046875 550.984375 C 531.234375 551.527344 530.398438 552.027344 529.535156 552.488281 C 528.675781 552.949219 527.792969 553.367188 526.890625 553.738281 C 525.988281 554.113281 525.070312 554.441406 524.136719 554.726562 C 523.203125 555.007812 522.257812 555.246094 521.296875 555.4375 C 520.339844 555.625 519.375 555.769531 518.402344 555.867188 C 517.433594 555.960938 516.457031 556.007812 515.480469 556.007812 C 514.503906 556.007812 513.53125 555.960938 512.558594 555.867188 C 511.585938 555.769531 510.621094 555.625 509.664062 555.4375 C 508.707031 555.246094 507.761719 555.007812 506.824219 554.726562 C 505.890625 554.441406 504.972656 554.113281 504.070312 553.738281 C 503.167969 553.367188 502.285156 552.949219 501.425781 552.488281 C 500.5625 552.027344 499.726562 551.527344 498.914062 550.984375 C 498.105469 550.441406 497.320312 549.859375 496.566406 549.242188 C 495.808594 548.621094 495.085938 547.964844 494.398438 547.277344 C 493.707031 546.585938 493.050781 545.863281 492.433594 545.109375 C 491.8125 544.351562 491.230469 543.570312 490.6875 542.757812 C 490.144531 541.945312 489.644531 541.109375 489.183594 540.246094 C 488.722656 539.386719 488.308594 538.503906 487.933594 537.601562 C 487.558594 536.699219 487.230469 535.78125 486.949219 534.847656 C 486.664062 533.914062 486.425781 532.96875 486.238281 532.007812 C 486.046875 531.050781 485.902344 530.085938 485.808594 529.113281 C 485.710938 528.144531 485.664062 527.167969 485.664062 526.191406 C 485.664062 525.214844 485.710938 524.242188 485.808594 523.269531 C 485.902344 522.296875 486.046875 521.332031 486.234375 520.375 C 486.425781 519.417969 486.664062 518.472656 486.945312 517.535156 C 487.230469 516.601562 487.558594 515.683594 487.933594 514.78125 C 488.308594 513.878906 488.722656 512.996094 489.183594 512.136719 C 489.644531 511.273438 490.144531 510.4375 490.6875 509.625 C 491.230469 508.8125 491.8125 508.03125 492.429688 507.277344 C 493.050781 506.519531 493.707031 505.796875 494.394531 505.109375 C 495.085938 504.417969 495.808594 503.761719 496.566406 503.144531 C 497.320312 502.523438 498.101562 501.941406 498.914062 501.398438 C 499.726562 500.855469 500.5625 500.355469 501.425781 499.894531 C 502.285156 499.433594 503.167969 499.019531 504.070312 498.644531 C 504.972656 498.269531 505.890625 497.941406 506.824219 497.660156 C 507.757812 497.375 508.707031 497.136719 509.664062 496.949219 C 510.621094 496.757812 511.585938 496.613281 512.558594 496.519531 C 513.53125 496.421875 514.503906 496.375 515.480469 496.375 C 516.457031 496.375 517.429688 496.421875 518.402344 496.519531 C 519.375 496.613281 520.339844 496.757812 521.296875 496.945312 C 522.253906 497.136719 523.203125 497.375 524.136719 497.65625 C 525.070312 497.941406 525.988281 498.269531 526.890625 498.644531 C 527.792969 499.015625 528.675781 499.433594 529.535156 499.894531 C 530.398438 500.355469 531.234375 500.855469 532.046875 501.398438 C 532.859375 501.941406 533.640625 502.523438 534.394531 503.140625 C 535.152344 503.761719 535.875 504.417969 536.566406 505.105469 Z M 536.566406 505.105469 " fill-opacity="1" fill-rule="nonzero"/><path fill="#ffffff" d="M 506.035156 497.929688 L 496.90625 549.082031 C 499.265625 551.03125 501.933594 552.617188 504.820312 553.773438 L 515.078125 496.28125 C 511.917969 496.363281 508.878906 496.933594 506.035156 497.929688 Z M 506.035156 497.929688 " fill-opacity="1" fill-rule="nonzero"/><path fill="#ffffff" d="M 521.386719 496.78125 L 510.914062 555.480469 C 512.441406 555.738281 514.011719 555.882812 515.613281 555.894531 C 518.617188 555.921875 521.515625 555.5 524.257812 554.699219 L 533.636719 502.136719 C 530.078125 499.492188 525.914062 497.628906 521.386719 496.78125 Z M 521.386719 496.78125 " fill-opacity="1" fill-rule="nonzero"/></svg>