<svg xmlns="http://www.w3.org/2000/svg" xmlns:xlink="http://www.w3.org/1999/xlink" width="1000" zoomAndPan="magnify" viewBox="0 0 750 749.999995" height="1000" preserveAspectRatio="xMidYMid meet" version="1.0"><defs><clipPath id="578ba38ca4"><path d="M 9.613281 63.882812 L 442.730469 63.882812 L 442.730469 505 L 9.613281 505 Z M 9.613281 63.882812 " clip-rule="nonzero"/></clipPath><clipPath id="98135fd232"><path d="M 163 66 L 442.730469 66 L 442.730469 392 L 163 392 Z M 163 66 " clip-rule="nonzero"/></clipPath><clipPath id="a8e62a27e3"><path d="M 0.160156 248 L 93 248 L 93 333 L 0.160156 333 Z M 0.160156 248 " clip-rule="nonzero"/></clipPath><clipPath id="48ad8125f4"><path d="M 282 0.640625 L 480 0.640625 L 480 195 L 282 195 Z M 282 0.640625 " clip-rule="nonzero"/></clipPath><clipPath id="28a29821d7"><path d="M 433 236 L 514 236 L 514 316 L 433 316 Z M 433 236 " clip-rule="nonzero"/></clipPath><clipPath id="f15d3cb172"><path d="M 304.707031 252.59375 L 562.175781 106.152344 L 705.523438 358.175781 L 448.050781 504.621094 Z M 304.707031 252.59375 " clip-rule="nonzero"/></clipPath><clipPath id="59bc311edd"><path d="M 304.707031 252.59375 L 562.175781 106.152344 L 705.523438 358.175781 L 448.050781 504.621094 Z M 304.707031 252.59375 " clip-rule="nonzero"/></clipPath><clipPath id="8a5f57bf58"><path d="M 304.707031 252.59375 L 562.175781 106.152344 L 705.523438 358.175781 L 448.050781 504.621094 Z M 304.707031 252.59375 " clip-rule="nonzero"/></clipPath><clipPath id="f0ab92be3b"><path d="M 432 397 L 512 397 L 512 478 L 432 478 Z M 432 397 " clip-rule="nonzero"/></clipPath><clipPath id="69a701abec"><path d="M 304.707031 252.59375 L 562.175781 106.152344 L 705.523438 358.175781 L 448.050781 504.621094 Z M 304.707031 252.59375 " clip-rule="nonzero"/></clipPath><clipPath id="ad38a448c9"><path d="M 304.707031 252.59375 L 562.175781 106.152344 L 705.523438 358.175781 L 448.050781 504.621094 Z M 304.707031 252.59375 " clip-rule="nonzero"/></clipPath><clipPath id="cd05ec29d6"><path d="M 304.707031 252.59375 L 562.175781 106.152344 L 705.523438 358.175781 L 448.050781 504.621094 Z M 304.707031 252.59375 " clip-rule="nonzero"/></clipPath><clipPath id="fac50d78f6"><path d="M 549 284 L 602 284 L 602 338 L 549 338 Z M 549 284 " clip-rule="nonzero"/></clipPath><clipPath id="46803ed336"><path d="M 304.707031 252.59375 L 562.175781 106.152344 L 705.523438 358.175781 L 448.050781 504.621094 Z M 304.707031 252.59375 " clip-rule="nonzero"/></clipPath><clipPath id="6494df9d7b"><path d="M 304.707031 252.59375 L 562.175781 106.152344 L 705.523438 358.175781 L 448.050781 504.621094 Z M 304.707031 252.59375 " clip-rule="nonzero"/></clipPath><clipPath id="ea8b130030"><path d="M 304.707031 252.59375 L 562.175781 106.152344 L 705.523438 358.175781 L 448.050781 504.621094 Z M 304.707031 252.59375 " clip-rule="nonzero"/></clipPath><clipPath id="5a5efb269c"><path d="M 526 152 L 590 152 L 590 216 L 526 216 Z M 526 152 " clip-rule="nonzero"/></clipPath><clipPath id="650c23050d"><path d="M 304.707031 252.59375 L 562.175781 106.152344 L 705.523438 358.175781 L 448.050781 504.621094 Z M 304.707031 252.59375 " clip-rule="nonzero"/></clipPath><clipPath id="fc33aa882d"><path d="M 304.707031 252.59375 L 562.175781 106.152344 L 705.523438 358.175781 L 448.050781 504.621094 Z M 304.707031 252.59375 " clip-rule="nonzero"/></clipPath><clipPath id="fd6a59f01a"><path d="M 304.707031 252.59375 L 562.175781 106.152344 L 705.523438 358.175781 L 448.050781 504.621094 Z M 304.707031 252.59375 " clip-rule="nonzero"/></clipPath><clipPath id="a741592556"><path d="M 337 231 L 392 231 L 392 287 L 337 287 Z M 337 231 " clip-rule="nonzero"/></clipPath><clipPath id="ceebab4acd"><path d="M 304.707031 252.59375 L 562.175781 106.152344 L 705.523438 358.175781 L 448.050781 504.621094 Z M 304.707031 252.59375 " clip-rule="nonzero"/></clipPath><clipPath id="0a38843934"><path d="M 304.707031 252.59375 L 562.175781 106.152344 L 705.523438 358.175781 L 448.050781 504.621094 Z M 304.707031 252.59375 " clip-rule="nonzero"/></clipPath><clipPath id="d856e3e217"><path d="M 304.707031 252.59375 L 562.175781 106.152344 L 705.523438 358.175781 L 448.050781 504.621094 Z M 304.707031 252.59375 " clip-rule="nonzero"/></clipPath><clipPath id="6dcdc23fad"><rect x="0" width="706" y="0" height="506"/></clipPath></defs><g transform="matrix(1, 0, 0, 1, 44, 110)"><g clip-path="url(#6dcdc23fad)"><g clip-path="url(#578ba38ca4)"><path fill="#ffce00" d="M 442.734375 343.984375 C 416.738281 436.851562 331.4375 504.972656 230.234375 504.972656 C 108.390625 504.972656 9.613281 406.246094 9.613281 284.46875 C 9.613281 162.6875 108.390625 63.960938 230.234375 63.960938 C 240.636719 63.960938 250.875 64.679688 260.902344 66.078125 C 221.054688 96.46875 195.332031 144.449219 195.332031 198.433594 C 195.332031 290.359375 269.886719 364.890625 361.878906 364.890625 C 391.226562 364.890625 418.785156 357.308594 442.734375 343.984375 Z M 442.734375 343.984375 " fill-opacity="1" fill-rule="nonzero"/></g><g clip-path="url(#98135fd232)"><path fill="#ffb600" d="M 442.734375 343.984375 C 411.542969 411.632812 206.15625 424.644531 170.570312 261.027344 C 132.269531 84.929688 260.902344 66.078125 260.902344 66.078125 C 221.054688 96.46875 195.332031 144.449219 195.332031 198.433594 C 195.332031 290.359375 269.886719 364.890625 361.878906 364.890625 C 391.226562 364.890625 418.785156 357.308594 442.734375 343.984375 Z M 442.734375 343.984375 " fill-opacity="1" fill-rule="nonzero"/></g><path fill="#ff619a" d="M 77.957031 314.238281 C 77.957031 320.808594 67.160156 326.132812 53.839844 326.132812 C 40.519531 326.132812 29.71875 320.808594 29.71875 314.238281 C 29.71875 307.667969 40.519531 302.34375 53.839844 302.34375 C 67.160156 302.34375 77.957031 307.667969 77.957031 314.238281 Z M 77.957031 314.238281 " fill-opacity="1" fill-rule="nonzero"/><path fill="#ff619a" d="M 182.40625 314.238281 C 182.40625 320.808594 171.609375 326.132812 158.289062 326.132812 C 144.96875 326.132812 134.167969 320.808594 134.167969 314.238281 C 134.167969 307.667969 144.96875 302.34375 158.289062 302.34375 C 171.609375 302.34375 182.40625 307.667969 182.40625 314.238281 Z M 182.40625 314.238281 " fill-opacity="1" fill-rule="nonzero"/><path fill="#3a3a3a" d="M 108.378906 372.078125 C 101.195312 372.078125 95.207031 370.03125 90.550781 365.972656 C 82.355469 358.835938 81.648438 348.101562 81.621094 347.652344 C 81.472656 345.078125 83.441406 342.871094 86.015625 342.71875 C 88.574219 342.582031 90.785156 344.527344 90.945312 347.089844 C 90.960938 347.285156 91.558594 354.519531 96.75 358.988281 C 100.117188 361.886719 104.867188 363.117188 110.867188 362.636719 C 129.324219 361.167969 129.535156 347.226562 129.496094 345.640625 C 129.4375 343.078125 131.457031 340.925781 134.023438 340.847656 C 136.574219 340.792969 138.734375 342.75 138.832031 345.3125 C 139.160156 353.75 133.886719 370.171875 111.609375 371.945312 C 110.507812 372.03125 109.429688 372.078125 108.378906 372.078125 Z M 108.378906 372.078125 " fill-opacity="1" fill-rule="nonzero"/><path fill="#3a3a3a" d="M 82.277344 289.632812 C 79.699219 289.632812 77.605469 287.542969 77.605469 284.964844 C 77.605469 277.535156 72.882812 271.496094 67.078125 271.496094 C 61.273438 271.496094 56.546875 277.535156 56.546875 284.964844 C 56.546875 287.542969 54.457031 289.632812 51.878906 289.632812 C 49.296875 289.632812 47.207031 287.542969 47.207031 284.964844 C 47.207031 272.390625 56.121094 262.15625 67.078125 262.15625 C 78.035156 262.15625 86.949219 272.390625 86.949219 284.964844 C 86.949219 287.542969 84.859375 289.632812 82.277344 289.632812 Z M 82.277344 289.632812 " fill-opacity="1" fill-rule="nonzero"/><path fill="#3a3a3a" d="M 164.570312 289.632812 C 161.988281 289.632812 159.898438 287.542969 159.898438 284.964844 C 159.898438 277.535156 155.175781 271.496094 149.367188 271.496094 C 143.5625 271.496094 138.839844 277.535156 138.839844 284.964844 C 138.839844 287.542969 136.746094 289.632812 134.167969 289.632812 C 131.589844 289.632812 129.496094 287.542969 129.496094 284.964844 C 129.496094 272.390625 138.410156 262.15625 149.367188 262.15625 C 160.328125 262.15625 169.242188 272.390625 169.242188 284.964844 C 169.242188 287.542969 167.148438 289.632812 164.570312 289.632812 Z M 164.570312 289.632812 " fill-opacity="1" fill-rule="nonzero"/><g clip-path="url(#a8e62a27e3)"><path fill="#e7655c" d="M 57.851562 261.140625 C 65.566406 257.292969 74.960938 258.03125 81.96875 263.058594 C 88.921875 268.042969 92.734375 276.296875 92.765625 284.773438 C 92.773438 286.707031 92.613281 288.640625 92.304688 290.550781 C 90.003906 304.742188 79.59375 315.828125 68.140625 323.683594 C 64.074219 326.472656 59.789062 328.941406 55.339844 331.066406 C 54.285156 331.570312 53.222656 332.054688 52.140625 332.5 C 50.878906 333.023438 49.632812 333.074219 48.359375 332.542969 C -6.089844 321.011719 -6.3125 251.3125 9.070312 248.457031 C 27.441406 245.046875 38.054688 271.015625 57.855469 261.140625 Z M 57.851562 261.140625 " fill-opacity="1" fill-rule="evenodd"/></g><path fill="#e7655c" d="M 85.761719 275.796875 C 85.8125 275.761719 102.355469 262.65625 124.828125 275.628906 L 122.5625 279.542969 C 102.746094 268.101562 88.566406 279.34375 88.523438 279.375 L 85.765625 275.800781 Z M 85.761719 275.796875 " fill-opacity="1" fill-rule="nonzero"/><path fill="#545454" d="M 50.484375 325.851562 C 51.46875 325.414062 52.433594 324.941406 53.398438 324.464844 C 60.617188 320.875 67.507812 316.335938 73.269531 310.671875 C 80.261719 303.792969 85.457031 294.957031 85.46875 284.914062 C 85.472656 281.367188 84.585938 277.808594 82.847656 274.710938 C 80.039062 269.707031 75.007812 265.957031 69.195312 265.511719 C 62.683594 265.007812 56.753906 268.859375 53.574219 274.390625 C 52.261719 276.664062 48.582031 277.144531 47.152344 274.660156 C 46.5625 273.636719 45.898438 272.660156 45.144531 271.746094 C 42.226562 268.234375 38.015625 265.832031 33.425781 265.5 C 29.296875 265.207031 25.253906 266.65625 22.097656 269.300781 C 15.359375 274.9375 14.082031 284.359375 16.246094 292.476562 C 18.164062 299.671875 22.667969 305.902344 27.976562 311.007812 C 32.742188 315.589844 38.25 319.394531 44.027344 322.597656 C 46.132812 323.765625 48.273438 324.894531 50.488281 325.851562 Z M 50.484375 325.851562 " fill-opacity="1" fill-rule="evenodd"/><path fill="#e7655c" d="M 152.792969 261.140625 C 145.078125 257.292969 135.683594 258.03125 128.675781 263.058594 C 121.726562 268.042969 117.910156 276.296875 117.878906 284.773438 C 117.871094 286.707031 118.03125 288.640625 118.34375 290.550781 C 120.644531 304.742188 131.050781 315.828125 142.503906 323.683594 C 146.570312 326.472656 150.855469 328.941406 155.304688 331.066406 C 156.363281 331.570312 157.425781 332.054688 158.503906 332.5 C 159.765625 333.023438 161.011719 333.074219 162.285156 332.542969 C 216.734375 321.011719 216.960938 251.3125 201.574219 248.457031 C 183.199219 245.046875 172.59375 271.015625 152.792969 261.140625 Z M 152.792969 261.140625 " fill-opacity="1" fill-rule="evenodd"/><path fill="#545454" d="M 160.164062 325.851562 C 159.179688 325.414062 158.210938 324.941406 157.25 324.464844 C 150.027344 320.875 143.140625 316.335938 137.375 310.671875 C 130.382812 303.792969 125.1875 294.957031 125.175781 284.914062 C 125.175781 281.367188 126.0625 277.808594 127.800781 274.710938 C 130.609375 269.707031 135.640625 265.957031 141.453125 265.511719 C 147.960938 265.007812 153.890625 268.859375 157.074219 274.390625 C 158.386719 276.664062 162.066406 277.144531 163.492188 274.660156 C 164.082031 273.636719 164.75 272.660156 165.503906 271.746094 C 168.417969 268.234375 172.628906 265.832031 177.21875 265.5 C 181.347656 265.207031 185.390625 266.65625 188.546875 269.300781 C 195.285156 274.9375 196.5625 284.359375 194.398438 292.476562 C 192.484375 299.671875 187.980469 305.902344 182.671875 311.007812 C 177.902344 315.589844 172.394531 319.394531 166.621094 322.597656 C 164.515625 323.765625 162.371094 324.894531 160.160156 325.851562 Z M 160.164062 325.851562 " fill-opacity="1" fill-rule="evenodd"/><path fill="#eff5f7" d="M 18.703125 285.398438 C 18.492188 286.832031 18.5625 289.90625 20.046875 293.453125 C 21.535156 297 24.433594 301.023438 26.183594 302.824219 C 27.929688 304.621094 28.523438 304.203125 28.421875 303.242188 C 28.316406 302.28125 27.511719 300.777344 26.304688 298.679688 C 25.101562 296.582031 23.492188 293.890625 22.355469 291.410156 C 21.21875 288.925781 20.554688 286.65625 19.976562 285.414062 C 19.402344 284.171875 18.910156 283.964844 18.703125 285.394531 Z M 18.703125 285.398438 " fill-opacity="1" fill-rule="evenodd"/><path fill="#eff5f7" d="M 35.339844 310.371094 C 34.253906 309.480469 32.472656 308.046875 31.476562 307.4375 C 30.480469 306.824219 30.273438 307.035156 30.253906 307.46875 C 30.238281 307.90625 30.414062 308.570312 31.234375 309.460938 C 32.054688 310.355469 33.523438 311.472656 34.625 311.925781 C 35.726562 312.382812 36.460938 312.171875 36.636719 311.890625 C 36.808594 311.613281 36.425781 311.261719 35.339844 310.371094 Z M 35.339844 310.371094 " fill-opacity="1" fill-rule="evenodd"/><path fill="#eff5f7" d="M 129.773438 285.398438 C 129.5625 286.832031 129.632812 289.90625 131.117188 293.453125 C 132.605469 297 135.503906 301.023438 137.253906 302.824219 C 139 304.621094 139.597656 304.203125 139.492188 303.242188 C 139.386719 302.28125 138.582031 300.777344 137.375 298.679688 C 136.171875 296.582031 134.5625 293.890625 133.425781 291.410156 C 132.289062 288.925781 131.625 286.65625 131.050781 285.414062 C 130.472656 284.171875 129.984375 283.964844 129.773438 285.394531 Z M 129.773438 285.398438 " fill-opacity="1" fill-rule="evenodd"/><path fill="#eff5f7" d="M 146.414062 310.371094 C 145.328125 309.480469 143.546875 308.046875 142.550781 307.4375 C 141.554688 306.824219 141.34375 307.035156 141.328125 307.46875 C 141.308594 307.90625 141.484375 308.570312 142.308594 309.460938 C 143.128906 310.355469 144.597656 311.472656 145.699219 311.925781 C 146.800781 312.382812 147.535156 312.171875 147.707031 311.890625 C 147.882812 311.613281 147.5 311.261719 146.414062 310.371094 Z M 146.414062 310.371094 " fill-opacity="1" fill-rule="evenodd"/><g clip-path="url(#48ad8125f4)"><path fill="#ffce00" d="M 300.441406 43.097656 L 306.597656 32.085938 L 301.011719 20.773438 C 298.058594 14.78125 303.253906 8 309.804688 9.296875 L 322.183594 11.75 L 331.214844 2.945312 C 336 -1.71875 344.054688 1.128906 344.84375 7.761719 L 346.339844 20.285156 L 357.503906 26.160156 C 363.417969 29.269531 363.203125 37.808594 357.136719 40.609375 L 345.683594 45.902344 L 343.550781 58.339844 C 342.421875 64.921875 334.234375 67.355469 329.695312 62.453125 L 321.121094 53.195312 L 308.636719 55.011719 C 302.027344 55.972656 297.183594 48.933594 300.441406 43.101562 Z M 477.886719 105.332031 L 461.628906 79.324219 L 473.832031 51.183594 C 476.492188 45.054688 470.964844 38.535156 464.484375 40.15625 L 434.726562 47.585938 L 411.734375 27.28125 C 406.726562 22.859375 398.820312 26.097656 398.359375 32.765625 L 396.226562 63.363281 L 369.8125 78.953125 C 364.0625 82.351562 364.699219 90.871094 370.894531 93.371094 L 399.335938 104.851562 L 406.003906 134.789062 C 407.457031 141.3125 415.757812 143.335938 420.046875 138.21875 L 439.757812 114.714844 L 470.292969 117.625 C 476.941406 118.257812 481.433594 110.992188 477.890625 105.328125 Z M 362.121094 118.925781 L 340.25 122.105469 L 325.234375 105.890625 C 320.695312 100.992188 312.503906 103.421875 311.375 110.007812 L 307.640625 131.789062 L 287.578125 141.058594 C 281.515625 143.859375 281.296875 152.402344 287.210938 155.511719 L 306.769531 165.796875 L 309.390625 187.738281 C 310.179688 194.371094 318.234375 197.21875 323.019531 192.554688 L 338.84375 177.128906 L 360.523438 181.421875 C 367.078125 182.71875 372.273438 175.9375 369.316406 169.949219 L 359.535156 150.132812 L 370.316406 130.839844 C 373.574219 125.007812 368.734375 117.972656 362.121094 118.933594 Z M 362.121094 118.925781 " fill-opacity="1" fill-rule="nonzero"/></g><g clip-path="url(#28a29821d7)"><g clip-path="url(#f15d3cb172)"><g clip-path="url(#59bc311edd)"><g clip-path="url(#8a5f57bf58)"><path fill="#fdd000" d="M 478.921875 249.773438 C 511.292969 237.425781 506.5625 237.261719 498.8125 270.015625 C 520.59375 297.027344 519.238281 292.449219 485.65625 295.148438 C 466.667969 324.132812 470.765625 321.625 457.644531 290.402344 C 424.121094 281.300781 427.960938 284.285156 453.507812 262.445312 C 451.789062 227.769531 450.085938 232.300781 478.921875 249.773438 Z M 478.921875 249.773438 " fill-opacity="1" fill-rule="evenodd"/></g></g></g></g><g clip-path="url(#f0ab92be3b)"><g clip-path="url(#69a701abec)"><g clip-path="url(#ad38a448c9)"><g clip-path="url(#cd05ec29d6)"><path fill="#fdd000" d="M 464.765625 412.929688 C 491.101562 390.285156 486.390625 391.714844 490.339844 425.300781 C 520.039062 443.351562 517.257812 439.40625 486.578125 453.472656 C 478.535156 487.28125 481.445312 483.308594 458.601562 458.507812 C 423.984375 461.261719 428.648438 462.886719 445.121094 433.550781 C 431.804688 401.367188 431.71875 406.230469 464.765625 412.929688 Z M 464.765625 412.929688 " fill-opacity="1" fill-rule="evenodd"/></g></g></g></g><g clip-path="url(#fac50d78f6)"><g clip-path="url(#46803ed336)"><g clip-path="url(#6494df9d7b)"><g clip-path="url(#ea8b130030)"><path fill="#fdd000" d="M 570.414062 294.363281 C 587.796875 279.484375 584.722656 280.34375 587.292969 302.414062 C 606.875 314.273438 605.070312 311.730469 584.816406 320.9375 C 579.488281 343.222656 581.433594 340.6875 566.398438 324.28125 C 543.597656 326.195312 546.632812 327.140625 557.53125 307.753906 C 548.632812 286.785156 548.667969 289.972656 570.414062 294.363281 Z M 570.414062 294.363281 " fill-opacity="1" fill-rule="evenodd"/></g></g></g></g><g clip-path="url(#5a5efb269c)"><g clip-path="url(#650c23050d)"><g clip-path="url(#fc33aa882d)"><g clip-path="url(#fd6a59f01a)"><path fill="#fdd000" d="M 545.570312 172.644531 C 519.53125 181.394531 522.378906 178.882812 543.644531 194.957031 C 543.9375 222.421875 542.425781 218.824219 564.304688 203.707031 C 590.488281 211.8125 586.699219 212.363281 578.945312 186.820312 C 594.75 164.460938 594.050781 168.246094 567.296875 167.597656 C 551.0625 145.632812 554.421875 147.464844 545.570312 172.644531 Z M 545.570312 172.644531 " fill-opacity="1" fill-rule="evenodd"/></g></g></g></g><g clip-path="url(#a741592556)"><g clip-path="url(#ceebab4acd)"><g clip-path="url(#0a38843934)"><g clip-path="url(#d856e3e217)"><path fill="#fdd000" d="M 359.96875 241.84375 C 378.082031 226.367188 374.871094 227.304688 377.421875 250.277344 C 397.65625 262.660156 395.777344 259.984375 374.847656 269.570312 C 369.285156 292.699219 371.367188 290.089844 355.738281 272.953125 C 332.113281 274.980469 335.222656 276.0625 346.5625 255.882812 C 337.476562 233.953125 337.375 237.222656 359.96875 241.84375 Z M 359.96875 241.84375 " fill-opacity="1" fill-rule="evenodd"/></g></g></g></g></g></g></svg>