<svg xmlns="http://www.w3.org/2000/svg" xmlns:xlink="http://www.w3.org/1999/xlink" width="1000" zoomAndPan="magnify" viewBox="0 0 750 749.999995" height="1000" preserveAspectRatio="xMidYMid meet" version="1.0"><defs><clipPath id="4bd04797d0"><path d="M 353 65.558594 L 397 65.558594 L 397 152 L 353 152 Z M 353 65.558594 " clip-rule="nonzero"/></clipPath></defs><path fill="#ffa500" d="M 581.96875 502.476562 C 567.542969 487.09375 557.882812 476.304688 561.210938 470.898438 C 564.535156 465.488281 577.945312 468.542969 598.53125 473.09375 C 624.589844 478.851562 646.910156 494.601562 634.613281 515.886719 C 622.648438 536.613281 600.664062 522.394531 581.96875 502.460938 Z M 581.96875 502.476562 " fill-opacity="1" fill-rule="nonzero"/><path fill="#ffa500" d="M 445.503906 602.984375 C 444.339844 581.921875 443.878906 567.445312 449.894531 565.457031 C 455.90625 563.46875 464.226562 574.414062 477.066406 591.132812 C 493.324219 612.292969 500.292969 638.699219 477.191406 647.117188 C 454.09375 655.53125 446.996094 630.269531 445.503906 603 Z M 445.503906 602.984375 " fill-opacity="1" fill-rule="nonzero"/><path fill="#ffa500" d="M 276.339844 592.261719 C 288.988281 575.382812 297.945312 563.992188 303.832031 566.332031 C 309.71875 568.671875 309.050781 582.398438 308.144531 603.460938 C 306.996094 630.125 295.367188 654.832031 272.253906 646.429688 C 249.136719 638.03125 259.953125 614.121094 276.324219 592.261719 Z M 276.339844 592.261719 " fill-opacity="1" fill-rule="nonzero"/><path fill="#ffa500" d="M 153.667969 475.320312 C 174.203125 470.515625 188.378906 467.554688 191.386719 473.125 C 194.394531 478.691406 185.054688 488.792969 170.816406 504.335938 C 152.808594 524.03125 128.003906 535.46875 115.707031 514.183594 C 103.742188 493.457031 127.050781 481.523438 153.648438 475.304688 Z M 153.667969 475.320312 " fill-opacity="1" fill-rule="nonzero"/><path fill="#ffa500" d="M 134.84375 306.878906 C 153.667969 316.410156 166.425781 323.25 165.152344 329.453125 C 163.878906 335.660156 150.230469 337.378906 129.324219 340.144531 C 102.867188 343.644531 76.507812 336.488281 80.785156 312.273438 C 84.9375 288.714844 110.472656 294.550781 134.84375 306.878906 Z M 134.84375 306.878906 " fill-opacity="1" fill-rule="nonzero"/><path fill="#ffa500" d="M 228.726562 165.757812 C 237.03125 185.148438 242.40625 198.589844 237.425781 202.519531 C 232.449219 206.449219 220.898438 199.003906 203.113281 187.695312 C 180.585938 173.375 165.007812 150.945312 183.84375 135.132812 C 202.171875 119.75 217.96875 140.636719 228.726562 165.757812 Z M 228.726562 165.757812 " fill-opacity="1" fill-rule="nonzero"/><g clip-path="url(#4bd04797d0)"><path fill="#ffa500" d="M 391.347656 117.984375 C 385.238281 138.171875 380.71875 151.933594 374.390625 151.742188 C 368.058594 151.566406 363.984375 138.425781 357.636719 118.316406 C 349.585938 92.863281 352.070312 65.675781 376.664062 65.675781 C 400.589844 65.675781 399.269531 91.828125 391.363281 117.984375 Z M 391.347656 117.984375 " fill-opacity="1" fill-rule="nonzero"/></g><path fill="#ffa500" d="M 546.621094 185.914062 C 528.960938 197.460938 516.664062 205.082031 511.921875 200.867188 C 507.183594 196.652344 512.511719 183.988281 520.5625 164.5 C 530.757812 139.839844 550.136719 120.59375 568.972656 136.40625 C 587.808594 152.21875 569.480469 170.972656 546.605469 185.914062 Z M 546.621094 185.914062 " fill-opacity="1" fill-rule="nonzero"/><path fill="#ffa500" d="M 621.917969 337.757812 C 600.964844 335.246094 586.648438 333.195312 585.726562 326.910156 C 584.800781 320.625 597.035156 314.359375 615.730469 304.605469 C 639.386719 292.261719 666.605469 289.984375 670.886719 314.199219 C 675.039062 337.757812 649.058594 341.003906 621.933594 337.757812 Z M 621.917969 337.757812 " fill-opacity="1" fill-rule="nonzero"/><path fill="#ffa500" d="M 609.96875 416.679688 C 590.132812 411.242188 584.59375 403.046875 585.4375 398.769531 C 586.042969 395.714844 589.910156 391.65625 613.917969 392.628906 C 627.691406 393.183594 633.960938 401.21875 632.210938 409.378906 C 630.460938 417.554688 622.648438 420.148438 609.953125 416.664062 Z M 609.96875 416.679688 " fill-opacity="1" fill-rule="nonzero"/><path fill="#ffa500" d="M 522.105469 555.261719 C 510.410156 538.332031 511.429688 528.5 514.835938 525.78125 C 517.269531 523.839844 522.820312 523.203125 540.589844 539.382812 C 550.789062 548.675781 550.421875 558.839844 543.835938 563.976562 C 537.25 569.117188 529.582031 566.078125 522.105469 555.261719 Z M 522.105469 555.261719 " fill-opacity="1" fill-rule="nonzero"/><path fill="#ffa500" d="M 365.703125 604.925781 C 367.613281 584.453125 374.722656 577.5625 379.082031 577.660156 C 382.183594 577.738281 386.863281 580.824219 390.074219 604.640625 C 391.921875 618.304688 385.09375 625.863281 376.742188 625.574219 C 368.390625 625.273438 364.476562 618.035156 365.703125 604.925781 Z M 365.703125 604.925781 " fill-opacity="1" fill-rule="nonzero"/><path fill="#ffa500" d="M 213.976562 542.46875 C 228.613281 528.007812 238.476562 527.308594 241.753906 530.1875 C 244.09375 532.242188 245.683594 537.617188 232.828125 557.917969 C 225.449219 569.5625 215.378906 570.976562 209.171875 565.394531 C 202.96875 559.792969 204.621094 551.726562 213.992188 542.46875 Z M 213.976562 542.46875 " fill-opacity="1" fill-rule="nonzero"/><path fill="#ffa500" d="M 137.882812 397.082031 C 158.390625 395.410156 166.394531 401.21875 167.0625 405.527344 C 167.523438 408.597656 165.296875 413.738281 142.402344 421.039062 C 129.261719 425.222656 120.640625 419.832031 119.476562 411.558594 C 118.316406 403.285156 124.773438 398.164062 137.898438 397.097656 Z M 137.882812 397.082031 " fill-opacity="1" fill-rule="nonzero"/><path fill="#ffa500" d="M 173.058594 236.804688 C 189.84375 248.703125 192.246094 258.296875 189.96875 262.019531 C 188.347656 264.675781 183.335938 267.171875 161.113281 258.042969 C 148.351562 252.808594 145.21875 243.121094 149.640625 236.039062 C 154.078125 228.960938 162.304688 229.183594 173.042969 236.804688 Z M 173.058594 236.804688 " fill-opacity="1" fill-rule="nonzero"/><path fill="#ffa500" d="M 303.035156 136.644531 C 308.238281 156.546875 303.910156 165.4375 299.792969 166.839844 C 296.847656 167.839844 291.390625 166.535156 280.238281 145.234375 C 273.84375 133.015625 277.644531 123.582031 285.601562 121.007812 C 293.554688 118.429688 299.710938 123.902344 303.035156 136.628906 Z M 303.035156 136.644531 " fill-opacity="1" fill-rule="nonzero"/><path fill="#ffa500" d="M 466.980469 143.453125 C 458.167969 162.050781 449.144531 166.074219 445.074219 164.5 C 442.175781 163.371094 438.835938 158.867188 443.976562 135.386719 C 446.917969 121.914062 455.90625 117.140625 463.65625 120.273438 C 471.402344 123.40625 472.613281 131.554688 466.964844 143.453125 Z M 466.980469 143.453125 " fill-opacity="1" fill-rule="nonzero"/><path fill="#ffa500" d="M 588.207031 254.046875 C 569.515625 262.625 560 259.917969 557.898438 256.085938 C 556.40625 253.363281 556.738281 247.765625 575.78125 233.082031 C 586.695312 224.664062 596.65625 226.78125 600.566406 234.148438 C 604.480469 241.511719 600.171875 248.542969 588.207031 254.03125 Z M 588.207031 254.046875 " fill-opacity="1" fill-rule="nonzero"/><path fill="#ffd500" d="M 555.671875 366.523438 C 555.671875 369.457031 555.601562 372.386719 555.457031 375.316406 C 555.3125 378.25 555.097656 381.171875 554.808594 384.09375 C 554.523438 387.011719 554.164062 389.925781 553.730469 392.828125 C 553.300781 395.730469 552.800781 398.617188 552.226562 401.496094 C 551.65625 404.375 551.011719 407.234375 550.300781 410.082031 C 549.585938 412.925781 548.804688 415.753906 547.953125 418.5625 C 547.101562 421.371094 546.179688 424.15625 545.191406 426.917969 C 544.203125 429.679688 543.148438 432.414062 542.027344 435.125 C 540.902344 437.835938 539.714844 440.519531 538.460938 443.171875 C 537.207031 445.824219 535.886719 448.441406 534.503906 451.03125 C 533.121094 453.617188 531.675781 456.167969 530.167969 458.6875 C 528.65625 461.203125 527.089844 463.679688 525.457031 466.121094 C 523.828125 468.558594 522.140625 470.957031 520.390625 473.3125 C 518.644531 475.671875 516.839844 477.984375 514.976562 480.25 C 513.117188 482.519531 511.199219 484.738281 509.230469 486.914062 C 507.261719 489.085938 505.238281 491.210938 503.164062 493.285156 C 501.089844 495.359375 498.964844 497.382812 496.789062 499.355469 C 494.617188 501.324219 492.394531 503.238281 490.128906 505.101562 C 487.859375 506.960938 485.546875 508.765625 483.191406 510.515625 C 480.832031 512.261719 478.433594 513.953125 475.996094 515.582031 C 473.554688 517.210938 471.078125 518.78125 468.5625 520.289062 C 466.042969 521.796875 463.492188 523.242188 460.90625 524.625 C 458.316406 526.007812 455.699219 527.328125 453.046875 528.582031 C 450.394531 529.835938 447.710938 531.023438 445 532.148438 C 442.289062 533.269531 439.554688 534.328125 436.789062 535.316406 C 434.027344 536.304688 431.242188 537.222656 428.433594 538.074219 C 425.628906 538.925781 422.800781 539.707031 419.953125 540.421875 C 417.109375 541.132812 414.246094 541.777344 411.367188 542.351562 C 408.492188 542.921875 405.601562 543.421875 402.699219 543.855469 C 399.796875 544.285156 396.886719 544.644531 393.964844 544.929688 C 391.046875 545.21875 388.121094 545.433594 385.191406 545.578125 C 382.257812 545.722656 379.328125 545.792969 376.394531 545.792969 C 373.460938 545.792969 370.527344 545.722656 367.597656 545.578125 C 364.664062 545.433594 361.742188 545.21875 358.820312 544.929688 C 355.902344 544.644531 352.988281 544.285156 350.085938 543.855469 C 347.183594 543.421875 344.296875 542.921875 341.417969 542.351562 C 338.539062 541.777344 335.679688 541.132812 332.832031 540.421875 C 329.984375 539.707031 327.160156 538.925781 324.351562 538.074219 C 321.542969 537.222656 318.757812 536.304688 315.996094 535.316406 C 313.234375 534.328125 310.496094 533.269531 307.785156 532.148438 C 305.074219 531.023438 302.394531 529.835938 299.742188 528.582031 C 297.089844 527.328125 294.46875 526.007812 291.882812 524.625 C 289.292969 523.242188 286.742188 521.796875 284.226562 520.289062 C 281.707031 518.78125 279.230469 517.210938 276.789062 515.582031 C 274.351562 513.953125 271.953125 512.261719 269.597656 510.515625 C 267.238281 508.765625 264.925781 506.960938 262.660156 505.101562 C 260.390625 503.238281 258.171875 501.324219 255.996094 499.355469 C 253.824219 497.382812 251.699219 495.359375 249.625 493.285156 C 247.550781 491.210938 245.527344 489.085938 243.554688 486.914062 C 241.585938 484.738281 239.667969 482.519531 237.808594 480.25 C 235.945312 477.984375 234.140625 475.671875 232.394531 473.3125 C 230.648438 470.957031 228.957031 468.558594 227.328125 466.121094 C 225.699219 463.679688 224.128906 461.203125 222.621094 458.6875 C 221.113281 456.167969 219.667969 453.617188 218.28125 451.03125 C 216.898438 448.441406 215.582031 445.824219 214.328125 443.171875 C 213.070312 440.519531 211.882812 437.835938 210.761719 435.125 C 209.636719 432.414062 208.582031 429.679688 207.59375 426.917969 C 206.605469 424.15625 205.683594 421.371094 204.832031 418.5625 C 203.980469 415.753906 203.199219 412.925781 202.488281 410.082031 C 201.773438 407.234375 201.132812 404.375 200.558594 401.496094 C 199.984375 398.617188 199.484375 395.730469 199.054688 392.828125 C 198.625 389.925781 198.265625 387.011719 197.976562 384.09375 C 197.691406 381.171875 197.472656 378.25 197.328125 375.316406 C 197.1875 372.386719 197.113281 369.457031 197.113281 366.523438 C 197.113281 363.585938 197.1875 360.65625 197.328125 357.726562 C 197.472656 354.792969 197.691406 351.871094 197.976562 348.949219 C 198.265625 346.03125 198.625 343.117188 199.054688 340.21875 C 199.484375 337.316406 199.984375 334.425781 200.558594 331.546875 C 201.132812 328.667969 201.773438 325.808594 202.488281 322.960938 C 203.199219 320.117188 203.980469 317.289062 204.832031 314.480469 C 205.683594 311.675781 206.605469 308.890625 207.59375 306.125 C 208.582031 303.363281 209.636719 300.628906 210.761719 297.917969 C 211.882812 295.207031 213.070312 292.523438 214.328125 289.871094 C 215.582031 287.21875 216.898438 284.601562 218.28125 282.011719 C 219.664062 279.425781 221.113281 276.875 222.621094 274.355469 C 224.128906 271.839844 225.699219 269.363281 227.328125 266.921875 C 228.957031 264.484375 230.648438 262.085938 232.394531 259.730469 C 234.140625 257.371094 235.945312 255.058594 237.808594 252.792969 C 239.667969 250.523438 241.585938 248.304688 243.554688 246.128906 C 245.527344 243.957031 247.550781 241.832031 249.625 239.757812 C 251.699219 237.683594 253.824219 235.660156 255.996094 233.6875 C 258.171875 231.71875 260.390625 229.804688 262.660156 227.941406 C 264.925781 226.082031 267.238281 224.277344 269.597656 222.527344 C 271.953125 220.78125 274.351562 219.09375 276.789062 217.460938 C 279.230469 215.832031 281.707031 214.261719 284.226562 212.753906 C 286.742188 211.246094 289.292969 209.800781 291.882812 208.417969 C 294.46875 207.035156 297.089844 205.714844 299.742188 204.460938 C 302.394531 203.207031 305.074219 202.019531 307.785156 200.894531 C 310.496094 199.773438 313.234375 198.71875 315.996094 197.726562 C 318.757812 196.738281 321.542969 195.820312 324.351562 194.96875 C 327.160156 194.117188 329.984375 193.335938 332.832031 192.621094 C 335.679688 191.910156 338.539062 191.265625 341.417969 190.695312 C 344.296875 190.121094 347.183594 189.621094 350.085938 189.1875 C 352.988281 188.757812 355.902344 188.398438 358.820312 188.113281 C 361.742188 187.824219 364.664062 187.609375 367.597656 187.464844 C 370.527344 187.320312 373.460938 187.25 376.394531 187.25 C 379.328125 187.25 382.257812 187.320312 385.191406 187.464844 C 388.121094 187.609375 391.046875 187.824219 393.964844 188.113281 C 396.886719 188.398438 399.796875 188.757812 402.699219 189.1875 C 405.601562 189.621094 408.492188 190.121094 411.367188 190.695312 C 414.246094 191.265625 417.109375 191.910156 419.953125 192.621094 C 422.800781 193.335938 425.628906 194.117188 428.433594 194.96875 C 431.242188 195.820312 434.027344 196.738281 436.789062 197.726562 C 439.554688 198.71875 442.289062 199.773438 445 200.894531 C 447.710938 202.019531 450.394531 203.207031 453.046875 204.460938 C 455.699219 205.714844 458.316406 207.035156 460.90625 208.417969 C 463.492188 209.800781 466.042969 211.246094 468.5625 212.753906 C 471.078125 214.261719 473.554688 215.832031 475.996094 217.460938 C 478.433594 219.089844 480.832031 220.78125 483.191406 222.527344 C 485.546875 224.277344 487.859375 226.082031 490.128906 227.941406 C 492.394531 229.804688 494.617188 231.71875 496.789062 233.6875 C 498.964844 235.660156 501.089844 237.683594 503.164062 239.757812 C 505.238281 241.832031 507.261719 243.957031 509.230469 246.128906 C 511.199219 248.304688 513.117188 250.523438 514.976562 252.792969 C 516.839844 255.058594 518.644531 257.371094 520.390625 259.730469 C 522.140625 262.085938 523.828125 264.484375 525.457031 266.921875 C 527.089844 269.363281 528.65625 271.839844 530.167969 274.355469 C 531.675781 276.875 533.121094 279.425781 534.503906 282.011719 C 535.886719 284.601562 537.207031 287.21875 538.460938 289.871094 C 539.714844 292.523438 540.902344 295.207031 542.027344 297.917969 C 543.148438 300.628906 544.203125 303.363281 545.191406 306.125 C 546.179688 308.890625 547.101562 311.675781 547.953125 314.480469 C 548.804688 317.289062 549.585938 320.117188 550.300781 322.960938 C 551.011719 325.808594 551.65625 328.667969 552.226562 331.546875 C 552.800781 334.425781 553.300781 337.316406 553.730469 340.21875 C 554.164062 343.117188 554.523438 346.03125 554.808594 348.949219 C 555.097656 351.871094 555.3125 354.792969 555.457031 357.726562 C 555.601562 360.65625 555.671875 363.585938 555.671875 366.523438 Z M 555.671875 366.523438 " fill-opacity="1" fill-rule="nonzero"/><path fill="#575260" d="M 550.3125 279.28125 L 432.472656 308.996094 C 412.667969 313.992188 392.320312 316.519531 371.890625 316.519531 C 351.464844 316.519531 331.117188 313.992188 311.308594 308.996094 L 193.46875 279.28125 C 189.636719 278.308594 186.074219 281.570312 186.675781 285.46875 C 192.261719 321.5625 212.402344 370.671875 247.480469 390.671875 C 291.28125 415.632812 346.484375 360.539062 361.613281 344.027344 C 364.238281 341.148438 367.960938 339.523438 371.875 339.523438 L 371.953125 339.523438 C 375.835938 339.523438 379.527344 341.132812 382.152344 343.996094 C 397.25 360.492188 452.503906 415.632812 496.316406 390.671875 C 531.394531 370.671875 551.535156 321.5625 557.121094 285.46875 C 557.726562 281.570312 554.160156 278.308594 550.328125 279.28125 Z M 550.3125 279.28125 " fill-opacity="1" fill-rule="nonzero"/><path fill="#876452" d="M 386.496094 429.566406 C 379.273438 429.566406 372.097656 426.847656 365.988281 421.566406 C 364.03125 419.878906 363.808594 416.902344 365.511719 414.945312 C 367.199219 412.992188 370.171875 412.769531 372.128906 414.46875 C 379.035156 420.4375 387.738281 421.789062 395.421875 418.097656 C 404.363281 413.785156 409.628906 404.113281 409.183594 392.835938 C 409.070312 390.242188 411.089844 388.0625 413.683594 387.964844 C 416.292969 387.871094 418.457031 389.875 418.550781 392.46875 C 419.15625 407.535156 411.855469 420.59375 399.492188 426.542969 C 395.292969 428.566406 390.886719 429.566406 386.511719 429.566406 Z M 386.496094 429.566406 " fill-opacity="1" fill-rule="nonzero"/><path fill="#876452" d="M 421.335938 396.636719 C 410.199219 396.636719 404.632812 389.113281 404.378906 388.777344 C 402.867188 386.675781 403.328125 383.75 405.425781 382.222656 C 407.511719 380.710938 410.40625 381.171875 411.933594 383.226562 C 412.140625 383.496094 415.738281 387.902344 423.023438 387.171875 C 425.566406 386.902344 427.90625 388.777344 428.160156 391.355469 C 428.433594 393.933594 426.554688 396.238281 423.976562 396.492188 C 423.054688 396.589844 422.179688 396.636719 421.320312 396.636719 Z M 421.335938 396.636719 " fill-opacity="1" fill-rule="nonzero"/><path fill="#ffe564" d="M 334.152344 232.097656 C 334.425781 232.707031 334.644531 233.335938 334.808594 233.988281 C 334.972656 234.640625 335.078125 235.316406 335.125 236.007812 C 335.175781 236.703125 335.167969 237.414062 335.101562 238.140625 C 335.039062 238.871094 334.917969 239.613281 334.738281 240.367188 C 334.5625 241.121094 334.328125 241.886719 334.039062 242.664062 C 333.75 243.4375 333.40625 244.21875 333.007812 245.007812 C 332.609375 245.792969 332.160156 246.585938 331.65625 247.378906 C 331.152344 248.167969 330.601562 248.960938 329.996094 249.75 C 329.394531 250.539062 328.742188 251.324219 328.046875 252.101562 C 327.347656 252.882812 326.609375 253.652344 325.824219 254.414062 C 325.039062 255.175781 324.214844 255.921875 323.347656 256.660156 C 322.484375 257.394531 321.582031 258.113281 320.644531 258.816406 C 319.710938 259.519531 318.742188 260.203125 317.742188 260.871094 C 316.742188 261.535156 315.71875 262.175781 314.667969 262.792969 C 313.613281 263.414062 312.539062 264.007812 311.445312 264.574219 C 310.351562 265.140625 309.238281 265.679688 308.113281 266.191406 C 306.984375 266.699219 305.847656 267.179688 304.699219 267.628906 C 303.550781 268.078125 302.394531 268.492188 301.234375 268.875 C 300.078125 269.257812 298.917969 269.605469 297.761719 269.917969 C 296.601562 270.230469 295.449219 270.503906 294.300781 270.746094 C 293.15625 270.984375 292.019531 271.1875 290.898438 271.351562 C 289.773438 271.515625 288.667969 271.640625 287.578125 271.730469 C 286.488281 271.816406 285.417969 271.867188 284.375 271.875 C 283.328125 271.886719 282.308594 271.855469 281.320312 271.789062 C 280.328125 271.722656 279.367188 271.613281 278.441406 271.46875 C 277.515625 271.324219 276.625 271.144531 275.769531 270.921875 C 274.914062 270.703125 274.101562 270.445312 273.328125 270.152344 C 272.554688 269.855469 271.824219 269.527344 271.140625 269.164062 C 270.453125 268.796875 269.816406 268.402344 269.226562 267.96875 C 268.636719 267.535156 268.097656 267.074219 267.609375 266.578125 C 267.121094 266.082031 266.683594 265.558594 266.300781 265.007812 C 265.914062 264.453125 265.585938 263.875 265.3125 263.265625 C 265.039062 262.660156 264.820312 262.03125 264.65625 261.378906 C 264.496094 260.726562 264.386719 260.050781 264.339844 259.359375 C 264.289062 258.664062 264.296875 257.953125 264.363281 257.222656 C 264.425781 256.496094 264.546875 255.753906 264.726562 255 C 264.902344 254.242188 265.136719 253.480469 265.425781 252.703125 C 265.714844 251.929688 266.058594 251.148438 266.457031 250.359375 C 266.855469 249.570312 267.304688 248.78125 267.808594 247.988281 C 268.3125 247.199219 268.867188 246.40625 269.46875 245.617188 C 270.070312 244.828125 270.722656 244.042969 271.417969 243.265625 C 272.117188 242.484375 272.859375 241.714844 273.640625 240.953125 C 274.425781 240.191406 275.253906 239.445312 276.117188 238.707031 C 276.980469 237.972656 277.882812 237.253906 278.820312 236.550781 C 279.753906 235.847656 280.722656 235.160156 281.722656 234.496094 C 282.722656 233.832031 283.746094 233.191406 284.800781 232.574219 C 285.851562 231.953125 286.925781 231.359375 288.019531 230.792969 C 289.113281 230.226562 290.226562 229.6875 291.351562 229.175781 C 292.480469 228.667969 293.617188 228.1875 294.765625 227.738281 C 295.914062 227.289062 297.070312 226.875 298.230469 226.492188 C 299.386719 226.109375 300.546875 225.761719 301.707031 225.449219 C 302.863281 225.136719 304.015625 224.863281 305.164062 224.621094 C 306.308594 224.382812 307.445312 224.179688 308.566406 224.015625 C 309.691406 223.851562 310.796875 223.726562 311.886719 223.636719 C 312.976562 223.550781 314.046875 223.5 315.089844 223.492188 C 316.136719 223.480469 317.15625 223.511719 318.144531 223.578125 C 319.136719 223.644531 320.097656 223.75 321.023438 223.894531 C 321.949219 224.039062 322.84375 224.222656 323.695312 224.445312 C 324.550781 224.664062 325.363281 224.921875 326.136719 225.214844 C 326.910156 225.507812 327.640625 225.839844 328.324219 226.203125 C 329.011719 226.566406 329.648438 226.964844 330.238281 227.398438 C 330.828125 227.828125 331.367188 228.292969 331.855469 228.789062 C 332.347656 229.28125 332.78125 229.808594 333.164062 230.359375 C 333.550781 230.914062 333.878906 231.492188 334.152344 232.097656 Z M 334.152344 232.097656 " fill-opacity="1" fill-rule="nonzero"/><path fill="#ffe564" d="M 363.484375 259.671875 C 363.796875 260.359375 364 261.085938 364.101562 261.851562 C 364.199219 262.621094 364.191406 263.414062 364.070312 264.230469 C 363.953125 265.046875 363.730469 265.875 363.402344 266.714844 C 363.074219 267.550781 362.644531 268.382812 362.117188 269.207031 C 361.585938 270.03125 360.96875 270.832031 360.261719 271.613281 C 359.554688 272.394531 358.773438 273.136719 357.914062 273.84375 C 357.054688 274.546875 356.136719 275.203125 355.160156 275.804688 C 354.183594 276.410156 353.164062 276.953125 352.109375 277.429688 C 351.050781 277.910156 349.972656 278.316406 348.871094 278.652344 C 347.773438 278.988281 346.675781 279.246094 345.578125 279.425781 C 344.484375 279.605469 343.410156 279.703125 342.355469 279.722656 C 341.304688 279.738281 340.292969 279.671875 339.324219 279.527344 C 338.355469 279.378906 337.449219 279.152344 336.601562 278.847656 C 335.753906 278.542969 334.984375 278.164062 334.292969 277.710938 C 333.601562 277.261719 333 276.746094 332.488281 276.164062 C 331.976562 275.585938 331.566406 274.949219 331.253906 274.265625 C 330.941406 273.578125 330.738281 272.851562 330.640625 272.082031 C 330.539062 271.316406 330.550781 270.523438 330.667969 269.703125 C 330.785156 268.886719 331.007812 268.058594 331.335938 267.222656 C 331.667969 266.382812 332.097656 265.554688 332.625 264.726562 C 333.152344 263.902344 333.769531 263.101562 334.476562 262.320312 C 335.183594 261.542969 335.96875 260.796875 336.824219 260.09375 C 337.683594 259.386719 338.601562 258.734375 339.578125 258.128906 C 340.554688 257.523438 341.574219 256.984375 342.632812 256.503906 C 343.691406 256.023438 344.769531 255.617188 345.867188 255.28125 C 346.964844 254.945312 348.0625 254.6875 349.160156 254.507812 C 350.257812 254.328125 351.332031 254.230469 352.382812 254.214844 C 353.4375 254.195312 354.445312 254.261719 355.414062 254.410156 C 356.382812 254.554688 357.292969 254.78125 358.136719 255.085938 C 358.984375 255.390625 359.753906 255.769531 360.445312 256.222656 C 361.136719 256.671875 361.742188 257.1875 362.25 257.769531 C 362.761719 258.351562 363.175781 258.984375 363.484375 259.671875 Z M 363.484375 259.671875 " fill-opacity="1" fill-rule="nonzero"/><path fill="#f8ffff" d="M 255.835938 320.800781 C 243.3125 323.125 238.953125 332.367188 236.34375 344.949219 C 235.519531 348.957031 229.996094 348.894531 228.949219 344.949219 C 225.558594 332.175781 221.34375 323.554688 209.601562 321.054688 C 205.992188 320.292969 205.609375 315.996094 209.238281 315.3125 C 221.710938 312.925781 226.210938 303.476562 228.949219 291.179688 C 230.140625 285.785156 234.007812 286.390625 234.914062 290.367188 C 237.714844 302.585938 243.902344 310.554688 256.007812 314.945312 C 259.476562 316.203125 259.445312 320.148438 255.820312 320.816406 Z M 255.835938 320.800781 " fill-opacity="1" fill-rule="nonzero"/><path fill="#f8ffff" d="M 270.152344 355.449219 C 264.949219 357.929688 262.390625 360.890625 260.242188 366.917969 C 259.542969 368.875 257.1875 368.875 256.488281 366.917969 C 254.339844 360.890625 251.777344 357.929688 246.574219 355.449219 C 244.890625 354.636719 244.890625 351.917969 246.574219 351.105469 C 251.777344 348.625 254.339844 345.664062 256.488281 339.636719 C 257.1875 337.679688 259.542969 337.679688 260.242188 339.636719 C 262.390625 345.664062 264.949219 348.625 270.152344 351.105469 C 271.839844 351.917969 271.839844 354.636719 270.152344 355.449219 Z M 270.152344 355.449219 " fill-opacity="1" fill-rule="nonzero"/></svg>